# This file uses centimeters as units for non-parametric coordinates.

mtllib stick.mtl
g default
v -0.110277 -0.040780 -7.268831
v 0.110277 -0.040780 -7.268831
v -0.110277 7.382073 -6.069926
v 0.110277 7.382073 -6.069926
v -0.110277 7.417240 -6.287659
v 0.110277 7.417240 -6.287659
v -0.110277 -0.005613 -7.486563
v 0.110277 -0.005613 -7.486563
vt 0.375000 0.000000
vt 0.625000 0.000000
vt 0.375000 0.250000
vt 0.625000 0.250000
vt 0.375000 0.500000
vt 0.625000 0.500000
vt 0.375000 0.750000
vt 0.625000 0.750000
vt 0.375000 1.000000
vt 0.625000 1.000000
vt 0.875000 0.000000
vt 0.875000 0.250000
vt 0.125000 0.000000
vt 0.125000 0.250000
vn 0.000000 -0.159449 0.987206
vn 0.000000 -0.159449 0.987206
vn 0.000000 -0.159449 0.987206
vn 0.000000 -0.159449 0.987206
vn 0.000000 0.987206 0.159449
vn 0.000000 0.987206 0.159449
vn 0.000000 0.987206 0.159449
vn 0.000000 0.987206 0.159449
vn 0.000000 0.159449 -0.987206
vn 0.000000 0.159449 -0.987206
vn 0.000000 0.159449 -0.987206
vn 0.000000 0.159449 -0.987206
vn 0.000000 -0.987206 -0.159449
vn 0.000000 -0.987206 -0.159449
vn 0.000000 -0.987206 -0.159449
vn 0.000000 -0.987206 -0.159449
vn 1.000000 0.000000 0.000000
vn 1.000000 0.000000 0.000000
vn 1.000000 0.000000 0.000000
vn 1.000000 0.000000 0.000000
vn -1.000000 0.000000 0.000000
vn -1.000000 0.000000 0.000000
vn -1.000000 0.000000 0.000000
vn -1.000000 0.000000 0.000000
s off
g pCube1
usemtl initialShadingGroup
f 1/1/1 2/2/2 4/4/3 3/3/4
f 3/3/5 4/4/6 6/6/7 5/5/8
f 5/5/9 6/6/10 8/8/11 7/7/12
f 7/7/13 8/8/14 2/10/15 1/9/16
f 2/2/17 8/11/18 6/12/19 4/4/20
f 7/13/21 1/1/22 3/3/23 5/14/24
