# This file uses centimeters as units for non-parametric coordinates.

mtllib Talller_pinepine_2.mtl
g default
v -0.712002 0.043237 0.712937
v 0.713867 0.043237 0.712937
v -0.312126 17.704187 0.313059
v 0.313992 17.704187 0.313059
v -0.312126 17.704187 -0.313059
v 0.313992 17.704187 -0.313059
v -0.712002 0.043237 -0.712937
v 0.713867 0.043237 -0.712937
v 0.000931 0.043237 0.976603
v 0.000931 0.043237 -0.976603
v 0.000931 17.704187 -0.428839
v 0.000931 17.704187 0.428839
v -0.430058 17.704187 0.000000
v 0.000931 17.704187 0.000000
v 0.431923 17.704187 0.000000
v 0.982437 0.043237 0.000000
v -0.980572 0.043237 0.000000
v 0.982437 -1.839071 0.000000
v 0.000931 -1.839071 0.000000
v 0.000931 -1.839071 -0.976603
v 0.713867 -1.839071 -0.712937
v -0.712002 -1.839071 -0.712937
v -0.980572 -1.839071 0.000000
v 0.000931 -1.839071 0.976603
v 0.713867 -1.839071 0.712937
v -0.712002 -1.839071 0.712937
v -0.440201 9.183958 0.441134
v 0.000931 9.183958 0.604280
v 0.442066 9.183958 0.441134
v 0.608246 9.183958 0.000000
v 0.442066 9.183958 -0.441134
v 0.000931 9.183958 -0.604280
v -0.440201 9.183958 -0.441134
v -0.606380 9.183958 0.000000
vt 0.500000 0.250000
vt 0.500000 0.146003
vt 0.625000 0.146003
vt 0.625000 0.250000
vt 0.500000 0.500000
vt 0.500000 0.375000
vt 0.625000 0.375000
vt 0.625000 0.500000
vt 0.625000 0.603997
vt 0.500000 0.603997
vt 0.625000 0.875000
vt 0.500000 0.875000
vt 0.500000 0.750000
vt 0.625000 0.750000
vt 0.750000 0.250000
vt 0.750000 0.146003
vt 0.875000 0.146003
vt 0.875000 0.250000
vt 0.125000 0.146003
vt 0.250000 0.146003
vt 0.250000 0.250000
vt 0.125000 0.250000
vt 0.375000 0.750000
vt 0.375000 0.875000
vt 0.375000 0.500000
vt 0.375000 0.603997
vt 0.375000 0.375000
vt 0.375000 0.146003
vt 0.375000 0.250000
vt 0.500000 1.000000
vt 0.625000 1.000000
vt 0.375000 1.000000
vt 0.500000 0.750000
vt 0.625000 0.750000
vt 0.625000 0.875000
vt 0.375000 0.750000
vt 0.375000 0.875000
vt 0.625000 1.000000
vt 0.500000 1.000000
vt 0.375000 1.000000
vt 0.375000 0.000000
vt 0.500000 0.000000
vt 0.625000 0.000000
vt 0.750000 0.000000
vt 0.875000 0.000000
vt 0.125000 0.000000
vt 0.250000 0.000000
vn 0.000000 0.050906 0.998703
vn 0.000000 0.033935 0.999424
vn 0.704775 0.035222 0.708556
vn 0.704282 0.050152 0.708147
vn 0.000000 0.050906 -0.998703
vn 0.000000 1.000000 0.000000
vn 0.998708 0.050819 0.000000
vn 0.704282 0.050152 -0.708147
vn 0.704775 0.035222 -0.708556
vn 0.000000 0.033935 -0.999424
vn 0.000000 0.050906 -0.998703
vn 0.704282 0.050152 -0.708147
vn 0.928207 -0.372063 0.000000
vn 0.000000 -1.000000 0.000000
vn 0.000000 -0.373659 -0.927566
vn 0.657208 -0.363056 -0.660506
vn 0.998708 0.050819 0.000000
vn 0.999418 0.034121 0.000000
vn 0.704775 0.035222 -0.708556
vn 0.704282 0.050152 -0.708147
vn -0.704775 0.035222 -0.708556
vn -0.999418 0.034121 0.000000
vn -0.998708 0.050819 0.000000
vn -0.704282 0.050152 -0.708147
vn -0.657208 -0.363056 -0.660506
vn 0.000000 -0.373659 -0.927566
vn 0.000000 -1.000000 0.000000
vn -0.928207 -0.372063 0.000000
vn -0.704282 0.050152 -0.708147
vn 0.000000 0.050906 -0.998703
vn 0.000000 0.033935 -0.999424
vn -0.704775 0.035222 -0.708556
vn -0.998708 0.050819 0.000000
vn 0.000000 1.000000 0.000000
vn 0.000000 0.050906 -0.998703
vn -0.704282 0.050152 -0.708147
vn -0.704775 0.035222 0.708556
vn 0.000000 0.033935 0.999424
vn 0.000000 0.050906 0.998703
vn -0.704282 0.050152 0.708147
vn -0.704282 0.050152 0.708147
vn 0.000000 0.050906 0.998703
vn 0.000000 1.000000 0.000000
vn -0.998708 0.050819 0.000000
vn 0.998708 0.050819 0.000000
vn 0.000000 1.000000 0.000000
vn 0.000000 0.050906 0.998703
vn 0.704282 0.050152 0.708147
vn 0.704775 0.035222 0.708556
vn 0.999418 0.034121 0.000000
vn 0.998708 0.050819 0.000000
vn 0.704282 0.050152 0.708147
vn 0.000000 -0.373659 0.927566
vn 0.000000 -1.000000 0.000000
vn 0.928207 -0.372063 0.000000
vn 0.657208 -0.363056 0.660506
vn -0.928207 -0.372063 0.000000
vn 0.000000 -1.000000 0.000000
vn 0.000000 -0.373659 0.927566
vn -0.657208 -0.363056 0.660506
vn -0.998708 0.050819 0.000000
vn -0.999418 0.034121 0.000000
vn -0.704775 0.035222 0.708556
vn -0.704282 0.050152 0.708147
vn 0.000000 0.031586 -0.999501
vn 0.705253 0.032377 -0.708216
vn 0.657208 -0.363056 -0.660506
vn 0.000000 -0.373659 -0.927566
vn 0.705253 0.032377 -0.708216
vn 0.999497 0.031725 0.000000
vn 0.928207 -0.372063 0.000000
vn 0.657208 -0.363056 -0.660506
vn -0.705253 0.032377 -0.708216
vn 0.000000 0.031586 -0.999501
vn 0.000000 -0.373659 -0.927566
vn -0.657208 -0.363056 -0.660506
vn -0.999497 0.031725 0.000000
vn -0.705253 0.032377 -0.708216
vn -0.657208 -0.363056 -0.660506
vn -0.928207 -0.372063 0.000000
vn 0.999497 0.031725 0.000000
vn 0.705253 0.032377 0.708216
vn 0.657208 -0.363056 0.660506
vn 0.928207 -0.372063 0.000000
vn 0.705253 0.032377 0.708216
vn 0.000000 0.031586 0.999501
vn 0.000000 -0.373659 0.927566
vn 0.657208 -0.363056 0.660506
vn 0.000000 0.031586 0.999501
vn -0.705253 0.032377 0.708216
vn -0.657208 -0.363056 0.660506
vn 0.000000 -0.373659 0.927566
vn -0.705253 0.032377 0.708216
vn -0.999497 0.031725 0.000000
vn -0.928207 -0.372063 0.000000
vn -0.657208 -0.363056 0.660506
vn -0.705253 0.032377 0.708216
vn 0.000000 0.031586 0.999501
vn 0.000000 0.033935 0.999424
vn -0.704775 0.035222 0.708556
vn 0.704775 0.035222 0.708556
vn 0.000000 0.033935 0.999424
vn 0.000000 0.031586 0.999501
vn 0.705253 0.032377 0.708216
vn 0.705253 0.032377 0.708216
vn 0.999497 0.031725 0.000000
vn 0.999418 0.034121 0.000000
vn 0.704775 0.035222 0.708556
vn 0.704775 0.035222 -0.708556
vn 0.999418 0.034121 0.000000
vn 0.999497 0.031725 0.000000
vn 0.705253 0.032377 -0.708216
vn 0.000000 0.031586 -0.999501
vn 0.000000 0.033935 -0.999424
vn 0.704775 0.035222 -0.708556
vn 0.705253 0.032377 -0.708216
vn -0.704775 0.035222 -0.708556
vn 0.000000 0.033935 -0.999424
vn 0.000000 0.031586 -0.999501
vn -0.705253 0.032377 -0.708216
vn -0.705253 0.032377 -0.708216
vn -0.999497 0.031725 0.000000
vn -0.999418 0.034121 0.000000
vn -0.704775 0.035222 -0.708556
vn -0.704775 0.035222 0.708556
vn -0.999418 0.034121 0.000000
vn -0.999497 0.031725 0.000000
vn -0.705253 0.032377 0.708216
s off
g Talller_pinepine_2:pasted__pasted__pCube4pasted__group2group10
usemtl initialShadingGroup
f 12/1/1 28/2/2 29/3/3 4/4/4
f 11/5/5 14/6/6 15/7/7 6/8/8
f 31/9/9 32/10/10 11/5/11 6/8/12
f 18/11/13 19/12/14 20/13/15 21/14/16
f 15/15/17 30/16/18 31/17/19 6/18/20
f 33/19/21 34/20/22 13/21/23 5/22/24
f 22/23/25 20/13/26 19/12/27 23/24/28
f 5/25/29 11/5/30 32/10/31 33/26/32
f 13/27/33 14/6/34 11/5/35 5/25/36
f 27/28/37 28/2/38 12/1/39 3/29/40
f 3/29/41 12/1/42 14/6/43 13/27/44
f 15/7/45 14/6/46 12/1/47 4/4/48
f 29/3/49 30/16/50 15/15/51 4/4/52
f 24/30/53 19/12/54 18/11/55 25/31/56
f 23/24/57 19/12/58 24/30/59 26/32/60
f 13/21/61 34/20/62 27/28/63 3/29/64
f 10/33/65 8/34/66 21/14/67 20/13/68
f 8/34/69 16/35/70 18/11/71 21/14/72
f 7/36/73 10/33/74 20/13/75 22/23/76
f 17/37/77 7/36/78 22/23/79 23/24/80
f 16/35/81 2/38/82 25/31/83 18/11/84
f 2/38/85 9/39/86 24/30/87 25/31/88
f 9/39/89 1/40/90 26/32/91 24/30/92
f 1/40/93 17/37/94 23/24/95 26/32/96
f 1/41/97 9/42/98 28/2/99 27/28/100
f 29/3/101 28/2/102 9/42/103 2/43/104
f 2/43/105 16/44/106 30/16/107 29/3/108
f 31/17/109 30/16/110 16/44/111 8/45/112
f 10/33/113 32/10/114 31/9/115 8/34/116
f 33/26/117 32/10/118 10/33/119 7/36/120
f 7/46/121 17/47/122 34/20/123 33/19/124
f 27/28/125 34/20/126 17/47/127 1/41/128
g default
v 2.630615 10.451763 -2.609418
v 0.021198 10.451763 -3.690274
v -2.588219 10.451763 -2.609418
v -3.669075 10.451763 0.000000
v -2.588219 10.451763 2.609418
v 0.021198 10.451763 3.690274
v 2.630617 10.451763 2.609418
v 3.711473 10.451763 0.000000
v 0.021198 17.832314 0.000000
v 1.946728 15.059413 -1.925529
v 0.021198 15.059413 -2.723109
v -1.904331 15.059413 -1.925529
v -2.701912 15.059413 0.000000
v -1.904331 15.059413 1.925529
v 0.021198 15.059413 2.723109
v 1.946728 15.059413 1.925529
v 2.744308 15.059413 0.000000
v 0.021198 20.505632 0.000000
vt 0.676777 0.073223
vt 0.750000 0.250000
vt 0.676777 0.426777
vt 0.500000 0.500000
vt 0.323223 0.426777
vt 0.250000 0.250000
vt 0.323223 0.073223
vt 0.500000 0.000000
vt 0.250000 0.500000
vt 0.312500 0.500000
vt 0.500000 1.000000
vt 0.375000 0.500000
vt 0.437500 0.500000
vt 0.500000 0.500000
vt 0.562500 0.500000
vt 0.625000 0.500000
vt 0.687500 0.500000
vt 0.750000 0.500000
vt 0.676777 0.073223
vt 0.750000 0.250000
vt 0.676777 0.426777
vt 0.500000 0.500000
vt 0.323223 0.426777
vt 0.250000 0.250000
vt 0.323223 0.073223
vt 0.500000 0.000000
vt 0.250000 0.500000
vt 0.312500 0.500000
vt 0.500000 1.000000
vt 0.375000 0.500000
vt 0.437500 0.500000
vt 0.500000 0.500000
vt 0.562500 0.500000
vt 0.625000 0.500000
vt 0.687500 0.500000
vt 0.750000 0.500000
vn 0.000000 -1.000000 -0.000000
vn 0.000000 -1.000000 -0.000000
vn 0.000000 -1.000000 -0.000000
vn 0.000000 -1.000000 -0.000000
vn 0.000000 -1.000000 -0.000000
vn 0.000000 -1.000000 -0.000000
vn 0.000000 -1.000000 -0.000000
vn 0.000000 -1.000000 -0.000000
vn 0.632456 0.447213 -0.632456
vn -0.000000 0.447213 -0.894428
vn 0.000000 1.000000 0.000000
vn -0.000000 0.447213 -0.894428
vn -0.632456 0.447213 -0.632455
vn 0.000000 1.000000 0.000000
vn -0.632456 0.447213 -0.632455
vn -0.894427 0.447214 0.000000
vn 0.000000 1.000000 0.000000
vn -0.894427 0.447214 0.000000
vn -0.632456 0.447214 0.632455
vn 0.000000 1.000000 0.000000
vn -0.632456 0.447214 0.632455
vn 0.000000 0.447214 0.894427
vn 0.000000 1.000000 0.000000
vn 0.000000 0.447214 0.894427
vn 0.632456 0.447214 0.632456
vn 0.000000 1.000000 0.000000
vn 0.632456 0.447214 0.632456
vn 0.894427 0.447214 0.000000
vn 0.000000 1.000000 0.000000
vn 0.894427 0.447214 0.000000
vn 0.632456 0.447213 -0.632456
vn 0.000000 1.000000 0.000000
vn 0.000000 -1.000000 0.000000
vn 0.000000 -1.000000 0.000000
vn 0.000000 -1.000000 0.000000
vn 0.000000 -1.000000 0.000000
vn 0.000000 -1.000000 0.000000
vn 0.000000 -1.000000 0.000000
vn 0.000000 -1.000000 0.000000
vn 0.000000 -1.000000 0.000000
vn 0.632456 0.447213 -0.632456
vn 0.000000 0.447213 -0.894428
vn 0.000000 1.000000 0.000000
vn 0.000000 0.447213 -0.894428
vn -0.632455 0.447214 -0.632456
vn 0.000000 1.000000 0.000000
vn -0.632455 0.447214 -0.632456
vn -0.894427 0.447214 0.000000
vn 0.000000 1.000000 0.000000
vn -0.894427 0.447214 0.000000
vn -0.632455 0.447214 0.632456
vn 0.000000 1.000000 0.000000
vn -0.632455 0.447214 0.632456
vn 0.000000 0.447213 0.894427
vn 0.000000 1.000000 0.000000
vn 0.000000 0.447213 0.894427
vn 0.632456 0.447213 0.632456
vn 0.000000 1.000000 0.000000
vn 0.632456 0.447213 0.632456
vn 0.894427 0.447213 0.000000
vn 0.000000 1.000000 0.000000
vn 0.894427 0.447213 0.000000
vn 0.632456 0.447213 -0.632456
vn 0.000000 1.000000 0.000000
s off
g Talller_pinepine_2:pasted__pasted__pasted__pCone1
usemtl initialShadingGroup
f 35/48/129 42/49/130 41/50/131 40/51/132 39/52/133 38/53/134 37/54/135 36/55/136
f 35/56/137 36/57/138 43/58/139
f 36/57/140 37/59/141 43/58/142
f 37/59/143 38/60/144 43/58/145
f 38/60/146 39/61/147 43/58/148
f 39/61/149 40/62/150 43/58/151
f 40/62/152 41/63/153 43/58/154
f 41/63/155 42/64/156 43/58/157
f 42/64/158 35/65/159 43/58/160
f 44/66/161 51/67/162 50/68/163 49/69/164 48/70/165 47/71/166 46/72/167 45/73/168
f 44/74/169 45/75/170 52/76/171
f 45/75/172 46/77/173 52/76/174
f 46/77/175 47/78/176 52/76/177
f 47/78/178 48/79/179 52/76/180
f 48/79/181 49/80/182 52/76/183
f 49/80/184 50/81/185 52/76/186
f 50/81/187 51/82/188 52/76/189
f 51/82/190 44/83/191 52/76/192
