# This file uses centimeters as units for non-parametric coordinates.

mtllib Glass Shard.mtl
g default
v 0.000000 1.906792 1.000000
v 0.997820 1.908478 0.001312
v 0.000000 3.848988 0.000000
v -0.952440 1.906792 0.000000
v 0.000000 -0.035404 0.000000
v 0.000000 1.906792 -1.000000
v -0.353022 2.659746 0.000000
v -0.287380 1.906792 0.315358
v 0.000000 1.529575 0.265664
v 0.000000 2.407627 -0.508115
vt 0.500000 0.500000
vt 0.749455 0.500434
vt 0.500000 1.000000
vt 0.250000 0.500000
vt 0.500000 1.000000
vt 1.000000 0.500000
vt 1.250000 0.500000
vt 0.308350 0.616700
vt 1.074950 0.616700
vt 0.328840 0.500000
vt 0.500000 0.667928
vt 0.754058 0.745942
vn -0.865591 0.202446 0.458005
vn -0.818828 0.225227 0.528009
vn -0.822318 0.223682 0.523221
vn -0.865591 0.202446 0.458005
vn -0.335684 -0.199163 0.920679
vn -0.335684 -0.199163 0.920679
vn -0.387495 -0.246721 0.888243
vn -0.387895 -0.247090 0.887966
vn 0.417025 -0.808467 0.415297
vn 0.381027 -0.433762 0.816498
vn 0.373503 -0.399512 0.837189
vn 0.581497 0.570056 -0.580429
vn 0.566368 0.392687 -0.724586
vn 0.557695 0.343803 -0.755497
vn -0.598713 0.523920 -0.605847
vn -0.598713 0.523920 -0.605847
vn -0.649730 0.440174 -0.619757
vn -0.627786 0.478024 -0.614311
vn -0.682371 -0.334630 -0.649917
vn -0.682371 -0.334630 -0.649917
vn -0.682371 -0.334630 -0.649917
vn 0.666057 -0.341448 -0.663160
vn 0.666057 -0.341448 -0.663160
vn 0.666057 -0.341448 -0.663160
vn 0.664440 0.342108 0.664440
vn 0.664440 0.342108 0.664440
vn 0.664440 0.342108 0.664440
vn -0.405513 0.322824 0.855187
vn -0.736427 -0.601765 0.309117
vn 0.308867 -0.159178 0.937691
vn 0.543697 0.279037 -0.791538
vn -0.745941 0.221430 -0.628125
s 1
g pPlatonic1
usemtl initialShadingGroup
f 3/3/1 7/8/2 8/10/3 1/1/4
s 2
f 4/4/5 5/5/6 9/11/7 8/10/8
s 3
f 1/1/9 9/11/10 2/2/11
s 4
f 6/6/12 10/12/13 2/2/14
s 5
f 6/6/15 4/7/16 7/9/17 10/12/18
s off
f 6/6/19 5/5/20 4/7/21
f 6/6/22 2/2/23 5/5/24
f 2/2/25 3/3/26 1/1/27
s 1
f 8/10/3 7/8/2 4/4/28
s 2
f 8/10/8 9/11/7 1/1/29
s 3
f 2/2/11 9/11/10 5/5/30
s 4
f 2/2/14 10/12/13 3/3/31
s 5
f 10/12/18 7/9/17 3/3/32
