# This file uses centimeters as units for non-parametric coordinates.

mtllib Board.mtl
g default
v -0.189253 1.279866 6.552493
v 0.189253 1.279866 6.552493
v -0.189253 9.858802 6.552493
v 0.189253 9.858802 6.552493
v -0.189253 9.858802 -6.552493
v 0.189253 9.858802 -6.552493
v -0.189253 1.279866 -6.552493
v 0.189253 1.279866 -6.552493
vt 0.375000 0.000000
vt 0.625000 0.000000
vt 0.375000 0.250000
vt 0.625000 0.250000
vt 0.375000 0.500000
vt 0.625000 0.500000
vt 0.375000 0.750000
vt 0.625000 0.750000
vt 0.375000 1.000000
vt 0.625000 1.000000
vt 0.875000 0.000000
vt 0.875000 0.250000
vt 0.125000 0.000000
vt 0.125000 0.250000
vn 0.000000 0.000000 1.000000
vn 0.000000 0.000000 1.000000
vn 0.000000 0.000000 1.000000
vn 0.000000 0.000000 1.000000
vn 0.000000 1.000000 0.000000
vn 0.000000 1.000000 0.000000
vn 0.000000 1.000000 0.000000
vn 0.000000 1.000000 0.000000
vn 0.000000 0.000000 -1.000000
vn 0.000000 0.000000 -1.000000
vn 0.000000 0.000000 -1.000000
vn 0.000000 0.000000 -1.000000
vn 0.000000 -1.000000 0.000000
vn 0.000000 -1.000000 0.000000
vn 0.000000 -1.000000 0.000000
vn 0.000000 -1.000000 0.000000
vn 1.000000 0.000000 0.000000
vn 1.000000 0.000000 0.000000
vn 1.000000 0.000000 0.000000
vn 1.000000 0.000000 0.000000
vn -1.000000 0.000000 0.000000
vn -1.000000 0.000000 0.000000
vn -1.000000 0.000000 0.000000
vn -1.000000 0.000000 0.000000
s off
g pCube2
usemtl initialShadingGroup
f 1/1/1 2/2/2 4/4/3 3/3/4
f 3/3/5 4/4/6 6/6/7 5/5/8
f 5/5/9 6/6/10 8/8/11 7/7/12
f 7/7/13 8/8/14 2/10/15 1/9/16
f 2/2/17 8/11/18 6/12/19 4/4/20
f 7/13/21 1/1/22 3/3/23 5/14/24
g default
v -0.336554 0.725499 7.175515
v 0.336554 0.725499 7.175515
v -0.336554 10.443089 7.175515
v 0.336554 10.443089 7.175515
v -0.336554 10.443089 -7.175515
v 0.336554 10.443089 -7.175515
v -0.336554 0.725499 -7.175515
v 0.336554 0.725499 -7.175515
v -0.336554 10.443089 0.000000
v 0.336554 10.443089 0.000000
v 0.336554 0.725499 0.000000
v -0.336554 0.725499 0.000000
v -0.336554 5.584294 7.175515
v 0.336554 5.584294 7.175515
v 0.336554 5.584294 -7.175515
v -0.336554 5.584294 -7.175515
v -0.336554 5.584294 0.000000
v -0.336554 9.957210 -7.175515
v 0.336554 9.957210 -7.175515
v 0.201447 10.076032 0.000081
v 0.336554 9.957210 7.175515
v -0.336554 9.957210 7.175515
v -0.336554 9.957210 0.000000
v -0.336554 1.211378 7.175515
v 0.336554 1.211378 7.175515
v 0.201447 1.092556 0.000081
v 0.336554 1.211378 -7.175515
v -0.336554 1.211378 -7.175515
v -0.336554 1.211378 0.000000
v -0.336554 10.443089 6.664578
v 0.336554 10.443089 6.664578
v 0.201447 10.076032 6.845748
v 0.201447 5.584294 6.845750
v 0.201447 1.092556 6.845750
v 0.336554 0.725499 6.664576
v -0.336554 0.725499 6.664576
v -0.336554 1.211378 6.664576
v -0.336554 5.584294 6.664576
v -0.336554 9.957210 6.664578
v -0.336554 0.725499 -6.670525
v 0.336554 0.725499 -6.670525
v 0.201447 1.092556 -6.851697
v 0.201447 5.584294 -6.851697
v 0.201447 10.076032 -6.851697
v 0.336554 10.443089 -6.670524
v -0.336554 10.443089 -6.670524
v -0.336554 9.957210 -6.670524
v -0.336554 5.584294 -6.670525
v -0.336554 1.211378 -6.670525
v 0.077680 5.584294 -6.670524
v 0.077680 9.957210 -6.670525
v 0.077680 9.957210 -0.000000
v 0.077680 5.584294 0.000000
v 0.077680 9.957210 6.664576
v 0.077680 5.584294 6.664578
v 0.077680 1.211378 6.664578
v 0.077680 1.211378 -0.000000
v 0.077680 1.211378 -6.670524
vt 0.375000 0.000000
vt 0.625000 0.000000
vt 0.375000 0.250000
vt 0.625000 0.250000
vt 0.375000 0.500000
vt 0.625000 0.500000
vt 0.375000 0.750000
vt 0.625000 0.750000
vt 0.375000 1.000000
vt 0.625000 1.000000
vt 0.875000 0.000000
vt 0.875000 0.250000
vt 0.125000 0.000000
vt 0.125000 0.250000
vt 0.250000 0.250000
vt 0.375000 0.375000
vt 0.625000 0.375000
vt 0.750000 0.250000
vt 0.625000 0.875000
vt 0.750000 0.000000
vt 0.250000 0.000000
vt 0.375000 0.875000
vt 0.375000 0.125000
vt 0.625000 0.125000
vt 0.750000 0.125000
vt 0.625000 0.625000
vt 0.875000 0.125000
vt 0.125000 0.125000
vt 0.375000 0.625000
vt 0.250000 0.125000
vt 0.125000 0.237500
vt 0.375000 0.512500
vt 0.625000 0.512500
vt 0.875000 0.237500
vt 0.750000 0.237500
vt 0.625000 0.237500
vt 0.375000 0.237500
vt 0.250000 0.237500
vt 0.375000 0.012500
vt 0.625000 0.012500
vt 0.750000 0.012500
vt 0.625000 0.737500
vt 0.875000 0.012500
vt 0.125000 0.012500
vt 0.375000 0.737500
vt 0.250000 0.012500
vt 0.366099 0.250000
vt 0.375000 0.258901
vt 0.625000 0.258901
vt 0.633901 0.250000
vt 0.633901 0.237500
vt 0.633901 0.125000
vt 0.633901 0.012500
vt 0.625000 0.991099
vt 0.633901 0.000000
vt 0.366099 0.000000
vt 0.375000 0.991099
vt 0.366099 0.012500
vt 0.366099 0.125000
vt 0.366099 0.237500
vt 0.133797 0.000000
vt 0.375000 0.758797
vt 0.625000 0.758797
vt 0.866203 0.000000
vt 0.866203 0.012500
vt 0.866203 0.125000
vt 0.866203 0.237500
vt 0.625000 0.491203
vt 0.866203 0.250000
vt 0.133797 0.250000
vt 0.375000 0.491203
vt 0.133797 0.237500
vt 0.133797 0.125000
vt 0.133797 0.012500
vt 0.866203 0.125000
vt 0.866203 0.237500
vt 0.750000 0.237500
vt 0.633901 0.237500
vt 0.633901 0.125000
vt 0.633901 0.012500
vt 0.750000 0.012500
vt 0.866203 0.012500
vn 0.000000 0.000000 1.000000
vn 0.000000 0.000000 1.000000
vn 0.000000 0.000000 1.000000
vn 0.000000 0.000000 1.000000
vn 0.000000 1.000000 0.000000
vn 0.000000 1.000000 0.000000
vn 0.000000 1.000000 0.000000
vn 0.000000 1.000000 0.000000
vn 0.000000 0.000000 -1.000000
vn 0.000000 0.000000 -1.000000
vn 0.000000 0.000000 -1.000000
vn 0.000000 0.000000 -1.000000
vn 0.000000 -1.000000 0.000000
vn 0.000000 -1.000000 0.000000
vn 0.000000 -1.000000 0.000000
vn 0.000000 -1.000000 0.000000
vn 1.000000 0.000000 0.000000
vn 1.000000 0.000000 0.000000
vn 1.000000 0.000000 0.000000
vn 1.000000 0.000000 0.000000
vn -1.000000 0.000000 0.000000
vn -1.000000 0.000000 0.000000
vn -1.000000 0.000000 0.000000
vn -1.000000 0.000000 0.000000
vn 0.000000 1.000000 0.000000
vn 0.000000 1.000000 0.000000
vn 1.000000 0.000000 0.000000
vn 1.000000 0.000000 0.000000
vn 0.000000 -1.000000 0.000000
vn 0.000000 -1.000000 0.000000
vn -1.000000 0.000000 0.000000
vn -1.000000 0.000000 0.000000
vn 0.000000 0.000000 1.000000
vn 0.000000 0.000000 1.000000
vn 1.000000 0.000000 0.000000
vn 1.000000 0.000000 0.000000
vn 1.000000 0.000000 0.000000
vn 0.000000 0.000000 -1.000000
vn 0.000000 0.000000 -1.000000
vn -1.000000 0.000000 0.000000
vn -1.000000 0.000000 0.000000
vn -1.000000 0.000000 0.000000
vn 0.000000 0.000000 -1.000000
vn 0.000000 0.000000 -1.000000
vn 0.938446 -0.345425 0.000000
vn 0.938446 -0.345425 0.000000
vn 0.963270 -0.224290 0.147667
vn 0.941448 -0.336985 0.010819
vn 0.941503 -0.336830 -0.010819
vn 0.963738 -0.222827 -0.146824
vn 0.000000 0.000000 1.000000
vn 0.000000 0.000000 1.000000
vn -1.000000 0.000000 0.000000
vn -1.000000 0.000000 0.000000
vn -1.000000 0.000000 0.000000
vn 0.000000 0.000000 1.000000
vn 0.000000 0.000000 1.000000
vn 0.963738 0.222827 -0.146824
vn 0.941503 0.336830 -0.010819
vn 0.938447 0.345424 0.000000
vn 0.938447 0.345424 0.000000
vn 0.941448 0.336985 0.010819
vn 0.963270 0.224290 0.147667
vn 0.000000 0.000000 -1.000000
vn 0.000000 0.000000 -1.000000
vn -1.000000 0.000000 0.000000
vn -1.000000 0.000000 0.000000
vn -1.000000 0.000000 0.000000
vn 0.000000 1.000000 0.000000
vn 0.000000 1.000000 0.000000
vn 0.932195 -0.018360 -0.361490
vn 0.964471 -0.191444 -0.182055
vn 0.925347 -0.000000 -0.379121
vn 0.925347 -0.000000 -0.379121
vn 0.932195 0.018360 -0.361491
vn 0.964471 0.191445 -0.182055
vn 0.000000 -1.000000 0.000000
vn 0.000000 -1.000000 0.000000
vn -1.000000 0.000000 0.000000
vn -1.000000 0.000000 0.000000
vn -1.000000 0.000000 0.000000
vn -1.000000 0.000000 0.000000
vn -1.000000 0.000000 0.000000
vn 0.000000 -1.000000 0.000000
vn 0.000000 -1.000000 0.000000
vn 0.929987 0.018429 0.367130
vn 0.963889 0.191901 0.184639
vn 0.922892 0.000000 0.385059
vn 0.922892 0.000000 0.385059
vn 0.929987 -0.018429 0.367130
vn 0.963889 -0.191902 0.184639
vn 0.000000 1.000000 0.000000
vn 0.000000 1.000000 0.000000
vn -1.000000 0.000000 0.000000
vn -1.000000 0.000000 0.000000
vn -1.000000 0.000000 0.000000
vn -1.000000 0.000000 0.000000
vn -1.000000 0.000000 0.000000
vn 0.825717 0.000000 0.564084
vn 0.825717 0.000000 0.564085
vn 0.825717 0.000000 0.564085
vn 0.825717 0.000000 0.564084
vn 0.692549 -0.721371 0.000000
vn 0.692549 -0.721371 0.000000
vn 0.692549 -0.721371 0.000000
vn 0.692549 -0.721371 0.000000
vn 0.825718 -0.000000 -0.564084
vn 0.825718 -0.000000 -0.564083
vn 0.825718 -0.000000 -0.564083
vn 0.825718 -0.000000 -0.564084
vn 0.692549 -0.721371 0.000000
vn 0.692549 -0.721370 0.000000
vn 0.825718 0.000000 -0.564083
vn 0.825718 0.000000 -0.564083
vn 0.692549 0.721371 0.000000
vn 0.692549 0.721371 0.000000
vn 0.692549 0.721371 0.000000
vn 0.692549 0.721371 0.000000
vn 0.825718 0.000000 0.564084
vn 0.825718 0.000000 0.564084
vn 0.692549 0.721371 0.000000
vn 0.692549 0.721371 0.000000
s 1
g pCube1
usemtl initialShadingGroup
f 21/37/25 22/38/26 29/50/27 30/51/28
s 2
f 17/30/29 18/31/30 53/82/31 54/85/32
s 3
f 26/46/33 27/47/34 23/40/35 24/43/36
s 4
f 48/76/37 49/77/38 19/33/39 20/36/40
s 5
f 58/89/41 59/90/42 60/91/43 61/39/44
s 6
f 55/86/45 56/87/46 25/44/47 31/52/48
s 2
f 38/62/49 39/63/50 18/31/30 17/30/29
s 5
f 62/92/51 63/93/52 61/39/44 60/91/43
s 4
f 20/36/40 19/33/39 43/68/53 44/71/54
s 6
f 46/73/55 47/74/56 31/52/48 25/44/47
s 1
f 32/53/57 33/54/58 22/38/26 21/37/25
s 5
f 63/93/52 64/94/59 65/95/60 61/39/44
f 66/96/61 58/89/41 61/39/44 65/95/60
s 3
f 24/43/36 23/40/35 35/56/62 36/59/63
s 6
f 56/87/46 57/88/64 37/60/65 25/44/47
f 45/72/66 46/73/55 25/44/47 37/60/65
s 3
f 13/19/67 14/20/68 27/47/34 26/46/33
s 7
f 18/32/69 28/49/70 52/81/71 53/83/72
f 39/64/73 40/65/74 28/49/70 18/32/69
s 1
f 30/51/28 29/50/27 12/18/75 11/17/76
s 6
f 17/29/77 31/52/48 47/74/56 38/61/78
f 54/84/79 55/86/45 31/52/48 17/29/77
s 1
f 9/15/80 10/16/81 33/54/58 32/53/57
s 7
f 42/67/82 43/69/83 19/34/84 34/55/85
f 49/78/86 50/79/87 34/55/85 19/34/84
s 3
f 36/59/63 35/56/62 16/22/88 15/21/89
s 6
f 57/88/64 48/75/90 20/35/91 37/60/65
f 44/70/92 45/72/66 37/60/65 20/35/91
s 2
f 11/17/93 12/18/94 39/63/50 38/62/49
s 7
f 29/50/95 40/65/74 39/64/73 12/18/96
f 22/38/97 41/66/98 40/65/74 29/50/95
f 33/54/99 42/67/82 41/66/98 22/38/97
f 10/16/100 43/69/83 42/67/82 33/54/99
s 4
f 44/71/54 43/68/53 10/24/101 9/23/102
s 6
f 32/53/103 45/72/66 44/70/92 9/15/104
f 21/37/105 46/73/55 45/72/66 32/53/103
f 30/51/106 47/74/56 46/73/55 21/37/105
f 38/61/78 47/74/56 30/51/106 11/17/107
s 4
f 15/21/108 16/22/109 49/77/38 48/76/37
s 7
f 35/57/110 50/79/87 49/78/86 16/25/111
f 23/41/112 51/80/113 50/79/87 35/57/110
f 27/48/114 52/81/71 51/80/113 23/41/112
f 53/83/72 52/81/71 27/48/114 14/26/115
s 2
f 54/85/32 53/82/31 14/20/116 13/19/117
s 6
f 26/45/118 55/86/45 54/84/79 13/28/119
f 24/42/120 56/87/46 55/86/45 26/45/118
f 36/58/121 57/88/64 56/87/46 24/42/120
f 15/27/122 48/75/90 57/88/64 36/58/121
s 9
f 51/80/123 52/81/124 59/90/125 58/89/126
s 10
f 52/81/127 28/49/128 60/91/129 59/90/130
s 11
f 40/65/131 41/66/132 63/93/133 62/92/134
s 10
f 28/49/128 40/65/135 62/92/136 60/91/129
s 11
f 41/66/132 42/67/137 64/94/138 63/93/133
s 12
f 42/67/139 34/55/140 65/95/141 64/94/142
s 9
f 50/79/143 51/80/123 58/89/126 66/96/144
s 12
f 34/55/140 50/79/145 66/96/146 65/95/141
