# This file uses centimeters as units for non-parametric coordinates.

mtllib Fence 2.mtl
g default
v 10.890794 -2.332850 -0.196529
v 10.214337 -2.332850 -0.476726
v 9.537881 -2.332850 -0.196529
v 9.257684 -2.332850 0.479927
v 9.537881 -2.332850 1.156383
v 10.214337 -2.332850 1.436580
v 10.890794 -2.332850 1.156383
v 11.170991 -2.332850 0.479927
v 10.699462 9.987662 -0.005198
v 10.214337 9.987662 -0.206143
v 9.729213 9.987662 -0.005198
v 9.528267 9.987662 0.479927
v 9.729213 9.987662 0.965052
v 10.214337 9.987662 1.165997
v 10.699462 9.987662 0.965052
v 10.900408 9.987662 0.479927
v 10.214337 -2.332850 0.479927
v 10.214337 9.987662 0.479927
v 10.993594 6.250204 0.150575
v 11.011419 5.921335 0.014153
v 11.029244 5.592466 0.150575
v 11.036628 5.456244 0.479927
v 11.029244 5.592466 0.809279
v 11.011419 5.921335 0.945701
v 10.993594 6.250204 0.809279
v 10.986211 6.386426 0.479927
v -10.905620 5.063233 0.150575
v -10.887794 4.734364 0.014153
v -10.869969 4.405495 0.150575
v -10.862586 4.269273 0.479927
v -10.869969 4.405495 0.809279
v -10.887794 4.734364 0.945701
v -10.905620 5.063233 0.809279
v -10.913003 5.199455 0.479927
v 11.011419 5.921335 0.479927
v -10.887794 4.734364 0.479927
v 4.682420 6.000030 0.058809
v 4.705212 5.579529 -0.115624
v 4.728004 5.159028 0.058809
v 4.737444 4.984851 0.479927
v 4.728004 5.159028 0.901045
v 4.705212 5.579529 1.075478
v 4.682420 6.000030 0.901045
v 4.672979 6.174207 0.479927
v 11.027492 9.294976 0.150575
v 11.027492 8.965625 0.014153
v 11.027492 8.636273 0.150575
v 11.027492 8.499851 0.479927
v 11.027492 8.636273 0.809279
v 11.027492 8.965625 0.945701
v 11.027492 9.294976 0.809279
v 11.027492 9.431398 0.479927
v -10.903867 9.294976 0.150575
v -10.903867 8.965625 0.014153
v -10.903867 8.636273 0.150575
v -10.903867 8.499851 0.479927
v -10.903867 8.636273 0.809279
v -10.903867 8.965625 0.945701
v -10.903867 9.294976 0.809279
v -10.903867 9.431398 0.479927
v 11.027492 8.965625 0.479927
v -10.903867 8.965625 0.479927
v -4.929765 9.413999 0.031554
v -4.929765 8.965625 -0.154169
v -4.929765 8.517251 0.031554
v -4.929765 8.331529 0.479927
v -4.929765 8.517251 0.928301
v -4.929765 8.965625 1.114023
v -4.929765 9.413999 0.928301
v -4.929765 9.599721 0.479927
v -9.568712 -2.332850 -0.005198
v -10.053837 -2.332850 -0.206143
v -10.538961 -2.332850 -0.005198
v -10.739907 -2.332850 0.479927
v -10.538961 -2.332850 0.965052
v -10.053837 -2.332850 1.165997
v -9.568712 -2.332850 0.965052
v -9.367766 -2.332850 0.479927
v -9.568712 9.987662 -0.005198
v -10.053837 9.987662 -0.206143
v -10.538961 9.987662 -0.005198
v -10.739907 9.987662 0.479927
v -10.538961 9.987662 0.965052
v -10.053837 9.987662 1.165997
v -9.568712 9.987662 0.965052
v -9.367766 9.987662 0.479927
v -10.053837 -2.332850 0.479927
v -10.053837 9.987662 0.479927
v -9.458692 2.142380 -0.115218
v -10.053837 2.142380 -0.361735
v -10.648982 2.142380 -0.115218
v -10.895499 2.142380 0.479927
v -10.648982 2.142380 1.075072
v -10.053837 2.142380 1.321589
v -9.458692 2.142380 1.075072
v -9.212174 2.142380 0.479927
vt 0.610485 0.045765
vt 0.500000 0.000000
vt 0.389515 0.045765
vt 0.343750 0.156250
vt 0.389515 0.266735
vt 0.500000 0.312500
vt 0.610485 0.266735
vt 0.656250 0.156250
vt 0.375000 0.312500
vt 0.406250 0.312500
vt 0.437500 0.312500
vt 0.468750 0.312500
vt 0.500000 0.312500
vt 0.531250 0.312500
vt 0.562500 0.312500
vt 0.593750 0.312500
vt 0.625000 0.312500
vt 0.375000 0.688440
vt 0.406250 0.688440
vt 0.437500 0.688440
vt 0.468750 0.688440
vt 0.500000 0.688440
vt 0.531250 0.688440
vt 0.562500 0.688440
vt 0.593750 0.688440
vt 0.625000 0.688440
vt 0.610485 0.733265
vt 0.500000 0.687500
vt 0.389515 0.733265
vt 0.343750 0.843750
vt 0.389515 0.954235
vt 0.500000 1.000000
vt 0.610485 0.954235
vt 0.656250 0.843750
vt 0.500000 0.150000
vt 0.500000 0.837500
vt 0.375000 0.420758
vt 0.406250 0.420758
vt 0.406250 0.688440
vt 0.375000 0.688440
vt 0.437500 0.420758
vt 0.437500 0.688440
vt 0.468750 0.420758
vt 0.468750 0.688440
vt 0.500000 0.420758
vt 0.500000 0.688440
vt 0.531250 0.420758
vt 0.531250 0.688440
vt 0.562500 0.420758
vt 0.562500 0.688440
vt 0.593750 0.420758
vt 0.593750 0.688440
vt 0.625000 0.420758
vt 0.625000 0.688440
vt 0.500000 0.000000
vt 0.610485 0.045765
vt 0.500000 0.150000
vt 0.389515 0.045765
vt 0.343750 0.156250
vt 0.389515 0.266735
vt 0.500000 0.312500
vt 0.610485 0.266735
vt 0.656250 0.156250
vt 0.610485 0.954235
vt 0.500000 1.000000
vt 0.500000 0.837500
vt 0.389515 0.954235
vt 0.343750 0.843750
vt 0.389515 0.733265
vt 0.500000 0.687500
vt 0.610485 0.733265
vt 0.656250 0.843750
vt 0.375000 0.312500
vt 0.406250 0.312500
vt 0.437500 0.312500
vt 0.468750 0.312500
vt 0.500000 0.312500
vt 0.531250 0.312500
vt 0.562500 0.312500
vt 0.593750 0.312500
vt 0.625000 0.312500
vt 0.375000 0.586034
vt 0.406250 0.586034
vt 0.406250 0.688440
vt 0.375000 0.688440
vt 0.437500 0.586034
vt 0.437500 0.688440
vt 0.468750 0.586034
vt 0.468750 0.688440
vt 0.500000 0.586034
vt 0.500000 0.688440
vt 0.531250 0.586034
vt 0.531250 0.688440
vt 0.562500 0.586034
vt 0.562500 0.688440
vt 0.593750 0.586034
vt 0.593750 0.688440
vt 0.625000 0.586034
vt 0.625000 0.688440
vt 0.500000 0.000000
vt 0.610485 0.045765
vt 0.500000 0.150000
vt 0.389515 0.045765
vt 0.343750 0.156250
vt 0.389515 0.266735
vt 0.500000 0.312500
vt 0.610485 0.266735
vt 0.656250 0.156250
vt 0.610485 0.954235
vt 0.500000 1.000000
vt 0.500000 0.837500
vt 0.389515 0.954235
vt 0.343750 0.843750
vt 0.389515 0.733265
vt 0.500000 0.687500
vt 0.610485 0.733265
vt 0.656250 0.843750
vt 0.375000 0.312500
vt 0.406250 0.312500
vt 0.437500 0.312500
vt 0.468750 0.312500
vt 0.500000 0.312500
vt 0.531250 0.312500
vt 0.562500 0.312500
vt 0.593750 0.312500
vt 0.625000 0.312500
vt 0.375000 0.449054
vt 0.406250 0.449054
vt 0.406250 0.688440
vt 0.375000 0.688440
vt 0.437500 0.449054
vt 0.437500 0.688440
vt 0.468750 0.449054
vt 0.468750 0.688440
vt 0.500000 0.449054
vt 0.500000 0.688440
vt 0.531250 0.449054
vt 0.531250 0.688440
vt 0.562500 0.449054
vt 0.562500 0.688440
vt 0.593750 0.449054
vt 0.593750 0.688440
vt 0.625000 0.449054
vt 0.625000 0.688440
vt 0.500000 0.000000
vt 0.610485 0.045765
vt 0.500000 0.150000
vt 0.389515 0.045765
vt 0.343750 0.156250
vt 0.389515 0.266735
vt 0.500000 0.312500
vt 0.610485 0.266735
vt 0.656250 0.156250
vt 0.610485 0.954235
vt 0.500000 1.000000
vt 0.500000 0.837500
vt 0.389515 0.954235
vt 0.343750 0.843750
vt 0.389515 0.733265
vt 0.500000 0.687500
vt 0.610485 0.733265
vt 0.656250 0.843750
vt 0.375000 0.312500
vt 0.406250 0.312500
vt 0.437500 0.312500
vt 0.468750 0.312500
vt 0.500000 0.312500
vt 0.531250 0.312500
vt 0.562500 0.312500
vt 0.593750 0.312500
vt 0.625000 0.312500
vn 0.707055 -0.012133 -0.707055
vn 0.000000 -0.012133 -0.999926
vn 0.000000 0.039281 -0.999228
vn 0.706561 0.039281 -0.706561
vn -0.707055 -0.012133 -0.707055
vn -0.706561 0.039281 -0.706561
vn -0.999926 -0.012133 0.000000
vn -0.999228 0.039281 0.000000
vn -0.707055 -0.012133 0.707055
vn -0.706561 0.039281 0.706561
vn 0.000000 -0.012133 0.999926
vn 0.000000 0.039281 0.999228
vn 0.707055 -0.012133 0.707055
vn 0.706561 0.039281 0.706561
vn 0.999926 -0.012133 -0.000000
vn 0.999228 0.039281 -0.000000
vn 0.000000 -1.000000 -0.000000
vn 0.000000 1.000000 0.000000
vn -0.038288 0.706070 -0.707107
vn -0.000018 -0.000001 -1.000000
vn -0.018079 -0.000980 -0.999836
vn -0.056342 0.704975 -0.706991
vn 0.038252 -0.706072 -0.707107
vn 0.020185 -0.706935 -0.706990
vn 0.054104 -0.998535 0.000000
vn 0.036035 -0.999351 -0.000000
vn 0.038252 -0.706072 0.707107
vn 0.020185 -0.706935 0.706990
vn -0.000018 -0.000001 1.000000
vn -0.018079 -0.000980 0.999836
vn -0.038288 0.706070 0.707107
vn -0.056342 0.704975 0.706991
vn -0.054140 0.998533 0.000000
vn -0.072192 0.997391 -0.000000
vn 0.044593 0.002417 -0.999002
vn 0.006361 0.707783 -0.706401
vn 0.998534 0.054122 -0.000000
vn 0.082825 -0.702949 -0.706401
vn 0.098661 -0.995121 0.000000
vn 0.082825 -0.702949 0.706401
vn 0.044593 0.002417 0.999002
vn 0.006361 0.707783 0.706401
vn -0.009475 0.999955 0.000000
vn -0.998534 -0.054122 -0.000000
vn 0.000033 0.707106 -0.707107
vn 0.000033 -0.000000 -1.000000
vn -0.052696 -0.000000 -0.998611
vn -0.052696 0.706124 -0.706125
vn 0.000033 -0.707107 -0.707107
vn -0.052696 -0.706124 -0.706125
vn 0.000033 -1.000000 0.000000
vn -0.052696 -0.998611 0.000000
vn 0.000033 -0.707107 0.707107
vn -0.052696 -0.706124 0.706125
vn 0.000033 -0.000000 1.000000
vn -0.052696 0.000000 0.998611
vn 0.000033 0.707106 0.707107
vn -0.052696 0.706124 0.706125
vn 0.000033 1.000000 0.000000
vn -0.052696 0.998611 0.000000
vn 0.019791 0.000000 -0.999804
vn 0.019791 0.706968 -0.706969
vn 1.000000 0.000000 0.000000
vn 0.019791 -0.706968 -0.706968
vn 0.019791 -0.999804 0.000000
vn 0.019791 -0.706968 0.706968
vn 0.019791 -0.000000 0.999804
vn 0.019791 0.706968 0.706969
vn 0.019791 0.999804 0.000000
vn -1.000000 0.000000 0.000000
vn 0.707107 0.000046 -0.707107
vn 0.000000 0.000046 -1.000000
vn 0.000000 0.049086 -0.998795
vn 0.706254 0.049086 -0.706254
vn -0.707107 0.000046 -0.707107
vn -0.706254 0.049086 -0.706254
vn -1.000000 0.000046 0.000000
vn -0.998795 0.049086 0.000000
vn -0.707107 0.000046 0.707107
vn -0.706254 0.049086 0.706254
vn 0.000000 0.000046 1.000000
vn 0.000000 0.049086 0.998795
vn 0.707107 0.000046 0.707107
vn 0.706254 0.049086 0.706254
vn 1.000000 0.000046 0.000000
vn 0.998795 0.049086 -0.000000
vn 0.000000 -0.085652 -0.996325
vn 0.704508 -0.085652 -0.704508
vn 0.000000 -1.000000 -0.000000
vn -0.704508 -0.085652 -0.704508
vn -0.996325 -0.085652 0.000000
vn -0.704508 -0.085652 0.704508
vn 0.000000 -0.085652 0.996325
vn 0.704508 -0.085652 0.704508
vn 0.996325 -0.085652 0.000000
vn 0.000000 1.000000 0.000000
s 1
g group10_pasted__pCylinder1
usemtl initialShadingGroup
f 1/9/1 2/10/2 10/19/3 9/18/4
f 2/10/2 3/11/5 11/20/6 10/19/3
f 3/11/5 4/12/7 12/21/8 11/20/6
f 4/12/7 5/13/9 13/22/10 12/21/8
f 5/13/9 6/14/11 14/23/12 13/22/10
f 6/14/11 7/15/13 15/24/14 14/23/12
f 7/15/13 8/16/15 16/25/16 15/24/14
f 8/16/15 1/17/1 9/26/4 16/25/16
f 2/2/2 1/1/1 17/35/17
f 3/3/5 2/2/2 17/35/17
f 4/4/7 3/3/5 17/35/17
f 5/5/9 4/4/7 17/35/17
f 6/6/11 5/5/9 17/35/17
f 7/7/13 6/6/11 17/35/17
f 8/8/15 7/7/13 17/35/17
f 1/1/1 8/8/15 17/35/17
f 9/33/4 10/32/3 18/36/18
f 10/32/3 11/31/6 18/36/18
f 11/31/6 12/30/8 18/36/18
f 12/30/8 13/29/10 18/36/18
f 13/29/10 14/28/12 18/36/18
f 14/28/12 15/27/14 18/36/18
f 15/27/14 16/34/16 18/36/18
f 16/34/16 9/33/4 18/36/18
s 2
f 37/37/19 38/38/20 28/39/21 27/40/22
f 38/38/20 39/41/23 29/42/24 28/39/21
f 39/41/23 40/43/25 30/44/26 29/42/24
f 40/43/25 41/45/27 31/46/28 30/44/26
f 41/45/27 42/47/29 32/48/30 31/46/28
f 42/47/29 43/49/31 33/50/32 32/48/30
f 43/49/31 44/51/33 34/52/34 33/50/32
f 44/51/33 37/53/19 27/54/22 34/52/34
f 20/55/35 19/56/36 35/57/37
f 21/58/38 20/55/35 35/57/37
f 22/59/39 21/58/38 35/57/37
f 23/60/40 22/59/39 35/57/37
f 24/61/41 23/60/40 35/57/37
f 25/62/42 24/61/41 35/57/37
f 26/63/43 25/62/42 35/57/37
f 19/56/36 26/63/43 35/57/37
f 27/64/22 28/65/21 36/66/44
f 28/65/21 29/67/24 36/66/44
f 29/67/24 30/68/26 36/66/44
f 30/68/26 31/69/28 36/66/44
f 31/69/28 32/70/30 36/66/44
f 32/70/30 33/71/32 36/66/44
f 33/71/32 34/72/34 36/66/44
f 34/72/34 27/64/22 36/66/44
f 19/73/36 20/74/35 38/38/20 37/37/19
f 20/74/35 21/75/38 39/41/23 38/38/20
f 21/75/38 22/76/39 40/43/25 39/41/23
f 22/76/39 23/77/40 41/45/27 40/43/25
f 23/77/40 24/78/41 42/47/29 41/45/27
f 24/78/41 25/79/42 43/49/31 42/47/29
f 25/79/42 26/80/43 44/51/33 43/49/31
f 26/80/43 19/81/36 37/53/19 44/51/33
s 3
f 63/82/45 64/83/46 54/84/47 53/85/48
f 64/83/46 65/86/49 55/87/50 54/84/47
f 65/86/49 66/88/51 56/89/52 55/87/50
f 66/88/51 67/90/53 57/91/54 56/89/52
f 67/90/53 68/92/55 58/93/56 57/91/54
f 68/92/55 69/94/57 59/95/58 58/93/56
f 69/94/57 70/96/59 60/97/60 59/95/58
f 70/96/59 63/98/45 53/99/48 60/97/60
f 46/100/61 45/101/62 61/102/63
f 47/103/64 46/100/61 61/102/63
f 48/104/65 47/103/64 61/102/63
f 49/105/66 48/104/65 61/102/63
f 50/106/67 49/105/66 61/102/63
f 51/107/68 50/106/67 61/102/63
f 52/108/69 51/107/68 61/102/63
f 45/101/62 52/108/69 61/102/63
f 53/109/48 54/110/47 62/111/70
f 54/110/47 55/112/50 62/111/70
f 55/112/50 56/113/52 62/111/70
f 56/113/52 57/114/54 62/111/70
f 57/114/54 58/115/56 62/111/70
f 58/115/56 59/116/58 62/111/70
f 59/116/58 60/117/60 62/111/70
f 60/117/60 53/109/48 62/111/70
f 45/118/62 46/119/61 64/83/46 63/82/45
f 46/119/61 47/120/64 65/86/49 64/83/46
f 47/120/64 48/121/65 66/88/51 65/86/49
f 48/121/65 49/122/66 67/90/53 66/88/51
f 49/122/66 50/123/67 68/92/55 67/90/53
f 50/123/67 51/124/68 69/94/57 68/92/55
f 51/124/68 52/125/69 70/96/59 69/94/57
f 52/125/69 45/126/62 63/98/45 70/96/59
s 4
f 89/127/71 90/128/72 80/129/73 79/130/74
f 90/128/72 91/131/75 81/132/76 80/129/73
f 91/131/75 92/133/77 82/134/78 81/132/76
f 92/133/77 93/135/79 83/136/80 82/134/78
f 93/135/79 94/137/81 84/138/82 83/136/80
f 94/137/81 95/139/83 85/140/84 84/138/82
f 95/139/83 96/141/85 86/142/86 85/140/84
f 96/141/85 89/143/71 79/144/74 86/142/86
f 72/145/87 71/146/88 87/147/89
f 73/148/90 72/145/87 87/147/89
f 74/149/91 73/148/90 87/147/89
f 75/150/92 74/149/91 87/147/89
f 76/151/93 75/150/92 87/147/89
f 77/152/94 76/151/93 87/147/89
f 78/153/95 77/152/94 87/147/89
f 71/146/88 78/153/95 87/147/89
f 79/154/74 80/155/73 88/156/96
f 80/155/73 81/157/76 88/156/96
f 81/157/76 82/158/78 88/156/96
f 82/158/78 83/159/80 88/156/96
f 83/159/80 84/160/82 88/156/96
f 84/160/82 85/161/84 88/156/96
f 85/161/84 86/162/86 88/156/96
f 86/162/86 79/154/74 88/156/96
f 71/163/88 72/164/87 90/128/72 89/127/71
f 72/164/87 73/165/90 91/131/75 90/128/72
f 73/165/90 74/166/91 92/133/77 91/131/75
f 74/166/91 75/167/92 93/135/79 92/133/77
f 75/167/92 76/168/93 94/137/81 93/135/79
f 76/168/93 77/169/94 95/139/83 94/137/81
f 77/169/94 78/170/95 96/141/85 95/139/83
f 78/170/95 71/171/88 89/143/71 96/141/85
