# This file uses centimeters as units for non-parametric coordinates.

mtllib Fence 1.mtl
g default
v 10.990247 9.506435 0.254230
v 11.006921 9.177506 0.117807
v 11.023595 8.848577 0.254230
v 11.030500 8.712330 0.583582
v 11.023595 8.848577 0.912933
v 11.006921 9.177506 1.049356
v 10.990247 9.506435 0.912933
v 10.983342 9.642683 0.583582
v -10.912989 8.396148 0.254230
v -10.896315 8.067218 0.117807
v -10.879641 7.738289 0.254230
v -10.872737 7.602042 0.583582
v -10.879641 7.738289 0.912933
v -10.896315 8.067218 1.049356
v -10.912989 8.396148 0.912933
v -10.919894 8.532394 0.583582
v 11.006921 9.177506 0.583582
v -10.896315 8.067218 0.583582
v 6.524472 9.233954 0.300279
v 6.538816 8.951015 0.182932
v 6.553159 8.668076 0.300279
v 6.559098 8.550879 0.583582
v 6.553159 8.668076 0.866884
v 6.538816 8.951015 0.984232
v 6.524472 9.233954 0.866884
v 6.518533 9.351152 0.583582
v -5.038531 8.862839 0.085535
v -5.048976 9.068872 0.583582
v -5.038531 8.862839 1.081629
v -5.013318 8.365431 1.287925
v -4.988105 7.868022 1.081629
v -4.977660 7.661989 0.583582
v -4.988105 7.868022 0.085535
v -5.013318 8.365431 -0.120762
v 10.995687 4.132619 0.254230
v 10.958539 3.805369 0.117807
v 10.921395 3.478118 0.254230
v 10.906007 3.342567 0.583582
v 10.921395 3.478118 0.912933
v 10.958539 3.805369 1.049356
v 10.995687 4.132619 0.912933
v 11.011071 4.268170 0.583582
v -10.795737 6.606154 0.254230
v -10.832881 6.278903 0.117807
v -10.870028 5.951653 0.254230
v -10.885413 5.816102 0.583582
v -10.870028 5.951653 0.912933
v -10.832881 6.278903 1.049356
v -10.795737 6.606154 0.912933
v -10.780349 6.741705 0.583582
v 10.958539 3.805369 0.583582
v -10.832881 6.278903 0.583582
v -1.333396 5.641400 0.145614
v -1.382792 5.206228 -0.035797
v -1.432189 4.771056 0.145614
v -1.452651 4.590801 0.583582
v -1.432189 4.771056 1.021549
v -1.382792 5.206228 1.202961
v -1.333396 5.641400 1.021549
v -1.312934 5.821655 0.583582
v 10.698362 -2.332850 0.098457
v 10.213235 -2.332850 -0.102488
v 9.728109 -2.332850 0.098457
v 9.527166 -2.332850 0.583582
v 9.728109 -2.332850 1.068706
v 10.213235 -2.332850 1.269651
v 10.698362 -2.332850 1.068706
v 10.899305 -2.332850 0.583582
v 10.698362 9.987662 0.098457
v 10.213235 9.987662 -0.102488
v 9.728109 9.987662 0.098457
v 9.527166 9.987662 0.583582
v 9.728109 9.987662 1.068706
v 10.213235 9.987662 1.269651
v 10.698362 9.987662 1.068706
v 10.899305 9.987662 0.583582
v 10.213235 -2.332850 0.583582
v 10.213235 9.987662 0.583582
v 10.791345 6.421650 0.005474
v 10.213235 6.421650 -0.233986
v 9.635125 6.421650 0.005474
v 9.395665 6.421650 0.583582
v 9.635125 6.421650 1.161689
v 10.213235 6.421650 1.401149
v 10.791345 6.421650 1.161689
v 11.030805 6.421650 0.583582
v -9.569816 -2.332850 0.098457
v -10.054940 -2.332850 -0.102488
v -10.540065 -2.332850 0.098457
v -10.741010 -2.332850 0.583582
v -10.540065 -2.332850 1.068706
v -10.054940 -2.332850 1.269651
v -9.569816 -2.332850 1.068706
v -9.368871 -2.332850 0.583582
v -9.569816 9.987662 0.098457
v -10.054940 9.987662 -0.102488
v -10.540065 9.987662 0.098457
v -10.741010 9.987662 0.583582
v -10.540065 9.987662 1.068706
v -10.054940 9.987662 1.269651
v -9.569816 9.987662 1.068706
v -9.368871 9.987662 0.583582
v -10.054940 -2.332850 0.583582
v -10.054940 9.987662 0.583582
v -9.459586 0.198880 -0.011772
v -10.054940 0.198880 -0.258375
v -10.650294 0.198880 -0.011772
v -10.896897 0.198880 0.583582
v -10.650294 0.198880 1.178936
v -10.054940 0.198880 1.425539
v -9.459586 0.198880 1.178936
v -9.212983 0.198880 0.583582
vt 0.610485 0.045765
vt 0.500000 0.000000
vt 0.389515 0.045765
vt 0.343750 0.156250
vt 0.389515 0.266735
vt 0.500000 0.312500
vt 0.610485 0.266735
vt 0.656250 0.156250
vt 0.375000 0.312500
vt 0.406250 0.312500
vt 0.437500 0.312500
vt 0.468750 0.312500
vt 0.500000 0.312500
vt 0.531250 0.312500
vt 0.562500 0.312500
vt 0.593750 0.312500
vt 0.625000 0.312500
vt 0.375000 0.688440
vt 0.406250 0.688440
vt 0.437500 0.688440
vt 0.468750 0.688440
vt 0.500000 0.688440
vt 0.531250 0.688440
vt 0.562500 0.688440
vt 0.593750 0.688440
vt 0.625000 0.688440
vt 0.610485 0.733265
vt 0.500000 0.687500
vt 0.389515 0.733265
vt 0.343750 0.843750
vt 0.389515 0.954235
vt 0.500000 1.000000
vt 0.610485 0.954235
vt 0.656250 0.843750
vt 0.500000 0.150000
vt 0.500000 0.837500
vt 0.625000 0.389189
vt 0.375000 0.389189
vt 0.406250 0.389189
vt 0.437500 0.389189
vt 0.468750 0.389189
vt 0.500000 0.389189
vt 0.531250 0.389189
vt 0.562500 0.389189
vt 0.593750 0.389189
vt 0.625000 0.587466
vt 0.375000 0.587466
vt 0.593750 0.587466
vt 0.562500 0.587466
vt 0.531250 0.587466
vt 0.500000 0.587466
vt 0.468750 0.587466
vt 0.437500 0.587466
vt 0.406250 0.587466
vt 0.375000 0.525409
vt 0.406250 0.525409
vt 0.406250 0.688440
vt 0.375000 0.688440
vt 0.437500 0.525409
vt 0.437500 0.688440
vt 0.468750 0.525409
vt 0.468750 0.688440
vt 0.500000 0.525409
vt 0.500000 0.688440
vt 0.531250 0.525409
vt 0.531250 0.688440
vt 0.562500 0.525409
vt 0.562500 0.688440
vt 0.593750 0.525409
vt 0.593750 0.688440
vt 0.625000 0.525409
vt 0.625000 0.688440
vt 0.500000 0.000000
vt 0.610485 0.045765
vt 0.500000 0.150000
vt 0.389515 0.045765
vt 0.343750 0.156250
vt 0.389515 0.266735
vt 0.500000 0.312500
vt 0.610485 0.266735
vt 0.656250 0.156250
vt 0.610485 0.954235
vt 0.500000 1.000000
vt 0.500000 0.837500
vt 0.389515 0.954235
vt 0.343750 0.843750
vt 0.389515 0.733265
vt 0.500000 0.687500
vt 0.610485 0.733265
vt 0.656250 0.843750
vt 0.375000 0.312500
vt 0.406250 0.312500
vt 0.437500 0.312500
vt 0.468750 0.312500
vt 0.500000 0.312500
vt 0.531250 0.312500
vt 0.562500 0.312500
vt 0.593750 0.312500
vt 0.625000 0.312500
vt 0.375000 0.579629
vt 0.406250 0.579629
vt 0.406250 0.688440
vt 0.375000 0.688440
vt 0.437500 0.579629
vt 0.437500 0.688440
vt 0.468750 0.579629
vt 0.468750 0.688440
vt 0.500000 0.579629
vt 0.500000 0.688440
vt 0.531250 0.579629
vt 0.531250 0.688440
vt 0.562500 0.579629
vt 0.562500 0.688440
vt 0.593750 0.579629
vt 0.593750 0.688440
vt 0.625000 0.579629
vt 0.625000 0.688440
vt 0.500000 0.000000
vt 0.610485 0.045765
vt 0.500000 0.150000
vt 0.389515 0.045765
vt 0.343750 0.156250
vt 0.389515 0.266735
vt 0.500000 0.312500
vt 0.610485 0.266735
vt 0.656250 0.156250
vt 0.610485 0.954235
vt 0.500000 1.000000
vt 0.500000 0.837500
vt 0.389515 0.954235
vt 0.343750 0.843750
vt 0.389515 0.733265
vt 0.500000 0.687500
vt 0.610485 0.733265
vt 0.656250 0.843750
vt 0.375000 0.312500
vt 0.406250 0.312500
vt 0.437500 0.312500
vt 0.468750 0.312500
vt 0.500000 0.312500
vt 0.531250 0.312500
vt 0.562500 0.312500
vt 0.593750 0.312500
vt 0.625000 0.312500
vt 0.375000 0.389751
vt 0.406250 0.389751
vt 0.406250 0.688440
vt 0.375000 0.688440
vt 0.437500 0.389751
vt 0.437500 0.688440
vt 0.468750 0.389751
vt 0.468750 0.688440
vt 0.500000 0.389751
vt 0.500000 0.688440
vt 0.531250 0.389751
vt 0.531250 0.688440
vt 0.562500 0.389751
vt 0.562500 0.688440
vt 0.593750 0.389751
vt 0.593750 0.688440
vt 0.625000 0.389751
vt 0.625000 0.688440
vt 0.500000 0.000000
vt 0.610485 0.045765
vt 0.500000 0.150000
vt 0.389515 0.045765
vt 0.343750 0.156250
vt 0.389515 0.266735
vt 0.500000 0.312500
vt 0.610485 0.266735
vt 0.656250 0.156250
vt 0.610485 0.954235
vt 0.500000 1.000000
vt 0.500000 0.837500
vt 0.389515 0.954235
vt 0.343750 0.843750
vt 0.389515 0.733265
vt 0.500000 0.687500
vt 0.610485 0.733265
vt 0.656250 0.843750
vt 0.375000 0.312500
vt 0.406250 0.312500
vt 0.437500 0.312500
vt 0.468750 0.312500
vt 0.500000 0.312500
vt 0.531250 0.312500
vt 0.562500 0.312500
vt 0.593750 0.312500
vt 0.625000 0.312500
vn -0.019037 0.706950 -0.707008
vn 0.016755 0.000849 -0.999859
vn 0.002917 0.000148 -0.999996
vn -0.032880 0.706345 -0.707104
vn 0.052548 -0.705251 -0.707008
vn 0.038715 -0.706049 -0.707104
vn 0.067374 -0.997728 -0.000000
vn 0.053543 -0.998566 0.000000
vn 0.052548 -0.705251 0.707007
vn 0.038715 -0.706049 0.707104
vn 0.016755 0.000849 0.999859
vn 0.002917 0.000148 0.999996
vn -0.019037 0.706950 0.707008
vn -0.032880 0.706345 0.707104
vn -0.033863 0.999426 0.000000
vn -0.047708 0.998861 0.000000
vn 0.027523 0.001395 -0.999620
vn -0.008261 0.707327 -0.706838
vn 0.998718 0.050625 0.000000
vn 0.063307 -0.704537 -0.706838
vn 0.078129 -0.996943 -0.000000
vn 0.063307 -0.704537 0.706838
vn 0.027523 0.001395 0.999620
vn -0.008261 0.707327 0.706838
vn -0.023083 0.999734 0.000000
vn -0.099390 0.701536 -0.705670
vn -0.063665 -0.003227 -0.997966
vn -0.998718 -0.050626 0.000000
vn -0.027940 -0.707991 -0.705669
vn -0.013142 -0.999914 0.000000
vn -0.027940 -0.707991 0.705669
vn -0.063665 -0.003227 0.997966
vn -0.099389 0.701536 0.705670
vn -0.114187 0.993459 0.000000
vn 0.079757 0.702594 -0.707107
vn 0.000006 -0.000001 -1.000000
vn -0.031635 0.003591 -0.999493
vn 0.048076 0.705830 -0.706748
vn -0.079745 -0.702596 -0.707106
vn -0.111346 -0.698648 -0.706748
vn -0.112779 -0.993620 0.000000
vn -0.144363 -0.989525 0.000000
vn -0.079744 -0.702596 0.707106
vn -0.111345 -0.698648 0.706748
vn 0.000006 -0.000001 1.000000
vn -0.031635 0.003591 0.999493
vn 0.079758 0.702594 0.707107
vn 0.048076 0.705830 0.706748
vn 0.112792 0.993619 0.000000
vn 0.081093 0.996706 -0.000000
vn 0.024240 -0.002752 -0.999702
vn 0.103967 0.699635 -0.706896
vn 0.993620 -0.112780 0.000000
vn -0.055487 -0.705138 -0.706896
vn -0.088512 -0.996075 0.000000
vn -0.055487 -0.705138 0.706896
vn 0.024239 -0.002752 0.999702
vn 0.103967 0.699635 0.706896
vn 0.136992 0.990572 0.000000
vn -0.993619 0.112787 -0.000000
vn 0.707107 -0.000057 -0.707107
vn 0.000000 -0.000057 -1.000000
vn 0.000000 0.101600 -0.994825
vn 0.703448 0.101599 -0.703448
vn -0.707107 -0.000057 -0.707107
vn -0.703448 0.101599 -0.703448
vn -1.000000 -0.000057 -0.000000
vn -0.994826 0.101598 0.000000
vn -0.707107 -0.000057 0.707107
vn -0.703448 0.101599 0.703448
vn 0.000000 -0.000057 1.000000
vn 0.000000 0.101599 0.994825
vn 0.707107 -0.000057 0.707107
vn 0.703448 0.101598 0.703448
vn 1.000000 -0.000057 -0.000000
vn 0.994826 0.101598 0.000000
vn 0.000000 -0.041705 -0.999130
vn 0.706491 -0.041704 -0.706492
vn 0.000000 -1.000000 0.000000
vn -0.706491 -0.041704 -0.706492
vn -0.999130 -0.041704 0.000000
vn -0.706491 -0.041704 0.706492
vn 0.000000 -0.041705 0.999130
vn 0.706491 -0.041705 0.706492
vn 0.999130 -0.041704 0.000000
vn 0.000000 1.000000 0.000000
vn 0.707107 0.000141 -0.707107
vn 0.000000 0.000141 -1.000000
vn 0.000000 0.039405 -0.999223
vn 0.706558 0.039405 -0.706558
vn -0.707107 0.000141 -0.707107
vn -0.706558 0.039405 -0.706558
vn -1.000000 0.000141 -0.000000
vn -0.999223 0.039405 0.000000
vn -0.707107 0.000141 0.707107
vn -0.706558 0.039405 0.706558
vn 0.000000 0.000141 1.000000
vn 0.000000 0.039405 0.999223
vn 0.707107 0.000141 0.707107
vn 0.706558 0.039405 0.706558
vn 1.000000 0.000141 0.000000
vn 0.999223 0.039405 0.000000
vn 0.000000 -0.149773 -0.988721
vn 0.699131 -0.149773 -0.699131
vn 0.000000 -1.000000 0.000000
vn -0.699131 -0.149773 -0.699131
vn -0.988721 -0.149772 0.000000
vn -0.699131 -0.149772 0.699131
vn 0.000000 -0.149772 0.988721
vn 0.699131 -0.149772 0.699131
vn 0.988720 -0.149773 0.000000
vn 0.000000 1.000000 0.000000
s 1
g group13_pasted__group4_pasted__pasted__pCylinder1
usemtl initialShadingGroup
f 19/38/1 20/39/2 34/54/3 27/47/4
f 20/39/2 21/40/5 33/53/6 34/54/3
f 21/40/5 22/41/7 32/52/8 33/53/6
f 22/41/7 23/42/9 31/51/10 32/52/8
f 23/42/9 24/43/11 30/50/12 31/51/10
f 24/43/11 25/44/13 29/49/14 30/50/12
f 25/44/13 26/45/15 28/48/16 29/49/14
f 26/45/15 19/37/1 27/46/4 28/48/16
f 2/2/17 1/1/18 17/35/19
f 3/3/20 2/2/17 17/35/19
f 4/4/21 3/3/20 17/35/19
f 5/5/22 4/4/21 17/35/19
f 6/6/23 5/5/22 17/35/19
f 7/7/24 6/6/23 17/35/19
f 8/8/25 7/7/24 17/35/19
f 1/1/18 8/8/25 17/35/19
f 9/33/26 10/32/27 18/36/28
f 10/32/27 11/31/29 18/36/28
f 11/31/29 12/30/30 18/36/28
f 12/30/30 13/29/31 18/36/28
f 13/29/31 14/28/32 18/36/28
f 14/28/32 15/27/33 18/36/28
f 15/27/33 16/34/34 18/36/28
f 16/34/34 9/33/26 18/36/28
f 1/9/18 2/10/17 20/39/2 19/38/1
f 2/10/17 3/11/20 21/40/5 20/39/2
f 3/11/20 4/12/21 22/41/7 21/40/5
f 4/12/21 5/13/22 23/42/9 22/41/7
f 5/13/22 6/14/23 24/43/11 23/42/9
f 6/14/23 7/15/24 25/44/13 24/43/11
f 7/15/24 8/16/25 26/45/15 25/44/13
f 8/16/25 1/17/18 19/37/1 26/45/15
f 28/48/16 27/46/4 9/26/26 16/25/34
f 29/49/14 28/48/16 16/25/34 15/24/33
f 30/50/12 29/49/14 15/24/33 14/23/32
f 31/51/10 30/50/12 14/23/32 13/22/31
f 32/52/8 31/51/10 13/22/31 12/21/30
f 33/53/6 32/52/8 12/21/30 11/20/29
f 34/54/3 33/53/6 11/20/29 10/19/27
f 27/47/4 34/54/3 10/19/27 9/18/26
s 2
f 53/55/35 54/56/36 44/57/37 43/58/38
f 54/56/36 55/59/39 45/60/40 44/57/37
f 55/59/39 56/61/41 46/62/42 45/60/40
f 56/61/41 57/63/43 47/64/44 46/62/42
f 57/63/43 58/65/45 48/66/46 47/64/44
f 58/65/45 59/67/47 49/68/48 48/66/46
f 59/67/47 60/69/49 50/70/50 49/68/48
f 60/69/49 53/71/35 43/72/38 50/70/50
f 36/73/51 35/74/52 51/75/53
f 37/76/54 36/73/51 51/75/53
f 38/77/55 37/76/54 51/75/53
f 39/78/56 38/77/55 51/75/53
f 40/79/57 39/78/56 51/75/53
f 41/80/58 40/79/57 51/75/53
f 42/81/59 41/80/58 51/75/53
f 35/74/52 42/81/59 51/75/53
f 43/82/38 44/83/37 52/84/60
f 44/83/37 45/85/40 52/84/60
f 45/85/40 46/86/42 52/84/60
f 46/86/42 47/87/44 52/84/60
f 47/87/44 48/88/46 52/84/60
f 48/88/46 49/89/48 52/84/60
f 49/89/48 50/90/50 52/84/60
f 50/90/50 43/82/38 52/84/60
f 35/91/52 36/92/51 54/56/36 53/55/35
f 36/92/51 37/93/54 55/59/39 54/56/36
f 37/93/54 38/94/55 56/61/41 55/59/39
f 38/94/55 39/95/56 57/63/43 56/61/41
f 39/95/56 40/96/57 58/65/45 57/63/43
f 40/96/57 41/97/58 59/67/47 58/65/45
f 41/97/58 42/98/59 60/69/49 59/67/47
f 42/98/59 35/99/52 53/71/35 60/69/49
s 3
f 79/100/61 80/101/62 70/102/63 69/103/64
f 80/101/62 81/104/65 71/105/66 70/102/63
f 81/104/65 82/106/67 72/107/68 71/105/66
f 82/106/67 83/108/69 73/109/70 72/107/68
f 83/108/69 84/110/71 74/111/72 73/109/70
f 84/110/71 85/112/73 75/113/74 74/111/72
f 85/112/73 86/114/75 76/115/76 75/113/74
f 86/114/75 79/116/61 69/117/64 76/115/76
f 62/118/77 61/119/78 77/120/79
f 63/121/80 62/118/77 77/120/79
f 64/122/81 63/121/80 77/120/79
f 65/123/82 64/122/81 77/120/79
f 66/124/83 65/123/82 77/120/79
f 67/125/84 66/124/83 77/120/79
f 68/126/85 67/125/84 77/120/79
f 61/119/78 68/126/85 77/120/79
f 69/127/64 70/128/63 78/129/86
f 70/128/63 71/130/66 78/129/86
f 71/130/66 72/131/68 78/129/86
f 72/131/68 73/132/70 78/129/86
f 73/132/70 74/133/72 78/129/86
f 74/133/72 75/134/74 78/129/86
f 75/134/74 76/135/76 78/129/86
f 76/135/76 69/127/64 78/129/86
f 61/136/78 62/137/77 80/101/62 79/100/61
f 62/137/77 63/138/80 81/104/65 80/101/62
f 63/138/80 64/139/81 82/106/67 81/104/65
f 64/139/81 65/140/82 83/108/69 82/106/67
f 65/140/82 66/141/83 84/110/71 83/108/69
f 66/141/83 67/142/84 85/112/73 84/110/71
f 67/142/84 68/143/85 86/114/75 85/112/73
f 68/143/85 61/144/78 79/116/61 86/114/75
s 4
f 105/145/87 106/146/88 96/147/89 95/148/90
f 106/146/88 107/149/91 97/150/92 96/147/89
f 107/149/91 108/151/93 98/152/94 97/150/92
f 108/151/93 109/153/95 99/154/96 98/152/94
f 109/153/95 110/155/97 100/156/98 99/154/96
f 110/155/97 111/157/99 101/158/100 100/156/98
f 111/157/99 112/159/101 102/160/102 101/158/100
f 112/159/101 105/161/87 95/162/90 102/160/102
f 88/163/103 87/164/104 103/165/105
f 89/166/106 88/163/103 103/165/105
f 90/167/107 89/166/106 103/165/105
f 91/168/108 90/167/107 103/165/105
f 92/169/109 91/168/108 103/165/105
f 93/170/110 92/169/109 103/165/105
f 94/171/111 93/170/110 103/165/105
f 87/164/104 94/171/111 103/165/105
f 95/172/90 96/173/89 104/174/112
f 96/173/89 97/175/92 104/174/112
f 97/175/92 98/176/94 104/174/112
f 98/176/94 99/177/96 104/174/112
f 99/177/96 100/178/98 104/174/112
f 100/178/98 101/179/100 104/174/112
f 101/179/100 102/180/102 104/174/112
f 102/180/102 95/172/90 104/174/112
f 87/181/104 88/182/103 106/146/88 105/145/87
f 88/182/103 89/183/106 107/149/91 106/146/88
f 89/183/106 90/184/107 108/151/93 107/149/91
f 90/184/107 91/185/108 109/153/95 108/151/93
f 91/185/108 92/186/109 110/155/97 109/153/95
f 92/186/109 93/187/110 111/157/99 110/155/97
f 93/187/110 94/188/111 112/159/101 111/157/99
f 94/188/111 87/189/104 105/161/87 112/159/101
