# This file uses centimeters as units for non-parametric coordinates.

mtllib reduced.mtl
g default
v 1.686209 7.413473 4.347818
v 1.580428 10.182324 4.789261
v 2.227157 10.190944 -5.751524
v 2.227157 7.578770 -6.300389
v 1.713408 10.281066 0.260416
v 1.713408 6.757099 -0.683099
v 2.078859 10.698936 2.670731
v 1.908237 6.976488 -3.686189
v 2.227157 10.653728 -4.079853
v 0.004042 6.306371 -0.683099
v 0.004043 6.306371 4.006096
v 0.004043 11.256797 5.249167
v 0.004043 8.806158 -6.512235
v 2.078859 10.940216 3.850006
v 0.004043 6.306371 -5.958086
v 2.461118 9.749112 -5.146304
v 2.227157 10.687142 -4.885588
v 0.004043 11.659526 -4.767144
v 1.746843 0.012191 -5.427670
v 0.004043 15.793319 4.323908
v 0.004043 13.594253 9.095407
v 2.227157 6.306371 -5.958086
v 1.519909 0.012191 4.053513
v 0.564186 0.012191 2.839906
v 2.227157 8.923789 -5.982605
v 1.641232 6.306371 4.006096
v 0.004043 13.673316 6.187592
v 1.501998 14.531077 5.089050
v 0.004043 16.914173 5.831219
v 0.564186 0.012191 4.053513
v 1.519909 0.012191 2.839906
v 1.753990 6.306371 2.670731
v 0.004043 6.976488 -3.686189
v 0.765468 0.012191 -4.234862
v 0.765468 0.012191 -5.427670
v 1.746843 0.012191 -4.234862
v 2.397392 6.990705 -4.822137
v 0.004043 13.763149 6.319917
v 0.004043 7.413473 4.847379
v 0.004043 7.578771 -6.750584
v 0.004042 11.302066 0.260416
v 0.004043 12.134622 2.116867
v 0.004043 11.659526 -3.431779
v 0.004043 16.629595 6.900922
v 0.004043 15.723527 7.880240
v 0.004043 12.590535 8.375198
v 0.004043 15.539264 3.492410
v -1.572342 10.182324 4.789261
v -1.745907 6.306371 2.670731
v -1.705325 6.757099 -0.683099
v -2.219074 8.923789 -5.982605
v -2.070776 10.698936 2.670731
v -1.705325 10.281066 0.260416
v -2.219074 10.653728 -4.079853
v -2.219074 10.190944 -5.751524
v -2.219074 7.578770 -6.300389
v -2.070776 10.940216 3.850006
v -2.219074 10.687142 -4.885588
v -0.556104 0.012191 2.839906
v -1.038001 15.569818 4.418522
v -1.900155 6.976488 -3.686189
v -0.264519 6.306371 2.670731
v -2.453036 9.749112 -5.146304
v -2.516348 9.732146 -4.079853
v -1.678124 7.413473 4.347818
v -0.934754 13.689529 6.143798
v -1.493915 14.531077 5.089050
v -0.999679 15.075230 4.149411
v -0.863956 16.677732 5.773815
v -1.511824 0.012191 4.053513
v -1.633146 6.306371 4.006096
v -1.511824 0.012191 2.839906
v -2.389310 6.990705 -4.822137
v -1.866873 0.012191 -4.756892
v -0.578631 5.692657 -5.225939
v -2.219074 6.306371 -5.958086
v -1.738758 0.012191 -5.427670
v -1.738758 0.012191 -4.234862
v -0.629267 0.012191 -4.756892
v -0.952094 13.795433 6.275686
v -0.783776 15.511930 7.825893
v -0.548834 13.615251 8.901147
v -0.707191 12.998504 8.128629
v 1.517731 13.034757 4.455450
v 0.004043 13.404870 3.027547
v -0.885920 13.339443 3.380883
v -1.509646 13.034757 4.455450
v -0.749570 12.456905 5.532974
v 0.004043 12.456905 5.664490
v 1.557596 11.793138 4.006096
v 0.004043 16.669657 4.249140
v -1.046330 16.217417 4.795958
v 0.559821 10.056322 -6.148746
v 0.004043 9.570753 -6.338923
v 0.004043 10.423468 -5.902651
v -0.551736 10.056322 -6.148746
v -0.816423 10.471307 -6.918049
v 0.004044 11.013304 -6.554753
v 0.824508 10.471307 -6.918049
v 0.004044 9.754488 -7.198798
v -0.574694 11.240323 -8.459305
v 0.004043 11.622635 -8.203044
v 0.582780 11.240323 -8.459305
v 0.004043 10.734695 -8.657338
v 0.004043 12.190275 -10.361732
vt 0.513284 0.281250
vt 0.656250 0.000000
vt 0.530262 0.968750
vt 0.843750 0.188468
vt 0.512731 0.468750
vt 0.512731 0.437500
vt 0.512731 0.000000
vt 0.687500 0.000000
vt 0.750000 0.000000
vt 0.812500 0.000000
vt 0.843750 0.000000
vt 0.828125 0.000000
vt 0.512731 0.875000
vt 0.625000 0.875000
vt 0.625000 0.937500
vt 0.625000 0.000000
vt 0.625000 0.281250
vt 0.625000 0.312500
vt 0.625000 0.375000
vt 0.625000 0.437500
vt 0.625000 0.468750
vt 0.525538 0.561532
vt 0.625000 0.561532
vt 0.625000 0.750000
vt 0.562500 0.812500
vt 0.625000 0.812500
vt 0.513776 0.250000
vt 0.518151 0.250000
vt 0.625000 0.250000
vt 0.625000 0.968750
vt 0.625000 1.000000
vt 0.519384 0.781250
vt 0.512731 0.750000
vt 0.875000 0.000000
vt 0.875000 0.188468
vt 0.625000 0.500000
vt 0.625000 0.968750
vt 0.562500 0.937500
vt 0.562500 0.781250
vt 0.625000 0.812500
vt 0.509834 0.312500
vt 0.509413 0.312500
vt 0.522924 0.250000
vt 0.625000 0.781250
vt 0.519384 0.812500
vt 0.625000 0.937500
vt 0.513041 0.250000
vt 0.625000 0.781250
vt 0.562500 0.968750
vt 0.843750 0.250000
vt 0.875000 0.250000
vt 0.812500 0.250000
vt 0.750000 0.250000
vt 0.687500 0.250000
vt 0.656250 0.250000
vt 0.562500 0.281250
vt 0.562500 0.281250
vt 0.513233 0.250000
vt 0.511382 0.312500
vt 0.509792 0.312500
vt 0.625000 0.796875
vt 0.512731 0.375000
vt 0.514069 0.312500
vt 0.512731 1.000000
vt 0.525390 0.250000
vt 0.625000 0.000000
vt 0.812500 0.188468
vt 0.750000 0.000000
vt 0.687500 0.000000
vt 0.513284 0.281250
vt 0.530262 0.968750
vt 0.843750 0.188468
vt 0.625000 0.468750
vt 0.625000 0.437500
vt 0.512731 0.437500
vt 0.512731 0.468750
vt 0.512731 0.000000
vt 0.656250 0.000000
vt 0.812500 0.000000
vt 0.843750 0.000000
vt 0.828125 0.000000
vt 0.625000 0.875000
vt 0.625000 0.312500
vt 0.625000 0.281250
vt 0.625000 0.375000
vt 0.625000 0.561532
vt 0.625000 0.750000
vt 0.625000 0.781250
vt 0.513776 0.250000
vt 0.625000 0.250000
vt 0.625000 1.000000
vt 0.512731 0.750000
vt 0.519384 0.781250
vt 0.875000 0.188468
vt 0.875000 0.000000
vt 0.625000 0.500000
vt 0.562500 0.937500
vt 0.625000 0.937500
vt 0.625000 0.937500
vt 0.562500 0.796875
vt 0.562500 0.312500
vt 0.509413 0.312500
vt 0.509792 0.312500
vt 0.562500 0.250000
vt 0.562500 0.312500
vt 0.509834 0.312500
vt 0.562500 0.250000
vt 0.522924 0.250000
vt 0.625000 0.781250
vt 0.625000 0.796875
vt 0.562500 0.797348
vt 0.625000 0.968750
vt 0.562500 0.250000
vt 0.562500 0.250000
vt 0.625000 0.968750
vt 0.625000 0.812500
vt 0.625000 0.796875
vt 0.562500 0.937500
vt 0.843750 0.250000
vt 0.875000 0.250000
vt 0.812500 0.250000
vt 0.750000 0.250000
vt 0.687500 0.250000
vt 0.656250 0.250000
vt 0.562500 0.250000
vt 0.562500 0.281250
vt 0.562500 0.312500
vt 0.511382 0.312500
vt 0.562500 0.312500
vt 0.625000 0.812500
vt 0.512731 0.375000
vt 0.525538 0.561532
vt 0.512731 0.875000
vt 0.519384 0.812500
vt 0.514069 0.312500
vt 0.512731 1.000000
vt 0.518151 0.250000
vt 0.513233 0.250000
vt 0.525390 0.250000
vt 0.513041 0.250000
vt 0.513489 0.312500
vt 0.513489 0.312500
vt 0.562500 0.312500
vt 0.562500 0.281250
vt 0.562500 0.250000
vt 0.515714 0.250000
vt 0.515714 0.250000
vt 0.562500 0.281250
vt 0.575269 0.500000
vt 0.525538 0.530766
vt 0.525538 0.530766
vt 0.519135 0.484375
vt 0.519135 0.484375
vt 0.575269 0.500000
vt 0.575269 0.500000
vt 0.575269 0.500000
vt 0.519135 0.484375
vt 0.575269 0.500000
vt 0.525538 0.530766
vt 0.575269 0.500000
vt 0.519135 0.484375
vt 0.575269 0.500000
vt 0.525538 0.530766
vt 0.548803 0.503785
vn 0.679106 -0.285523 -0.676233
vn 0.977585 0.002697 -0.210523
vn 0.991976 -0.115031 0.052457
vn 0.980458 -0.196531 -0.008819
vn -0.017861 -0.980402 -0.196198
vn 0.133972 -0.985828 -0.100973
vn 0.785718 -0.616885 -0.045826
vn 0.854929 -0.515265 -0.059984
vn 0.674286 0.641989 -0.364950
vn 0.904943 0.386793 0.177397
vn 0.853554 0.463325 0.238277
vn 0.839459 0.519555 -0.159285
vn 0.534844 0.844101 -0.037896
vn 0.674286 0.641989 -0.364950
vn 0.839459 0.519555 -0.159285
vn 0.814176 0.580594 -0.005198
vn 0.477162 0.873158 0.099558
vn 0.534844 0.844101 -0.037896
vn 0.814176 0.580594 -0.005198
vn 0.804516 0.585263 0.101101
vn 0.620855 0.705725 -0.341309
vn 0.361169 0.880222 -0.307841
vn 0.477162 0.873158 0.099558
vn 0.804516 0.585263 0.101101
vn 0.150066 -0.256842 -0.954732
vn 0.266798 0.174539 -0.947816
vn 0.683077 0.111120 -0.721844
vn 0.608232 -0.187125 -0.771387
vn 0.133972 -0.985828 -0.100973
vn -0.013538 -0.998995 0.042735
vn 0.801803 -0.573618 0.167554
vn 0.785718 -0.616885 -0.045826
vn 0.853554 0.463325 0.238277
vn 0.904943 0.386793 0.177397
vn 0.541993 0.080643 0.836505
vn 0.652496 0.200050 0.730910
vn 0.214522 -0.430177 0.876886
vn -0.166653 -0.536123 0.827526
vn 0.778607 -0.325111 0.536726
vn 0.650578 -0.328415 0.684757
vn 0.679106 -0.285523 -0.676233
vn -0.298377 -0.598554 -0.743441
vn 0.150066 -0.256842 -0.954732
vn 0.608232 -0.187125 -0.771387
vn 0.683077 0.111120 -0.721844
vn 0.977585 0.002697 -0.210523
vn 0.679106 -0.285523 -0.676233
vn 0.608232 -0.187125 -0.771387
vn 0.934213 -0.289740 0.208081
vn 0.994036 -0.040697 0.101170
vn 0.966158 0.188640 0.175935
vn 0.959994 -0.048386 0.275807
vn 0.770460 -0.492785 0.404418
vn 0.991046 -0.026405 -0.130881
vn 0.994036 -0.040697 0.101170
vn 0.934213 -0.289740 0.208081
vn 0.991046 -0.026405 -0.130881
vn 0.700608 0.292421 -0.650876
vn 0.659524 0.394501 -0.639842
vn 0.994036 -0.040697 0.101170
vn -0.999308 -0.031720 -0.019433
vn -0.017861 -0.980402 -0.196198
vn -0.633939 -0.001401 -0.773382
vn 0.854929 -0.515265 -0.059984
vn 0.996525 -0.061147 0.056562
vn 0.999864 -0.010765 0.012475
vn 0.691584 0.004011 -0.722285
vn 0.903443 -0.398641 -0.157723
vn 0.987820 -0.060972 0.143156
vn 0.995425 -0.057054 0.076644
vn 0.721285 -0.608384 -0.331086
vn 0.620855 0.705725 -0.341309
vn 0.964840 0.205210 -0.164231
vn 0.590955 0.268254 -0.760797
vn 0.551254 0.508001 -0.661856
vn 0.804516 0.585263 0.101101
vn 0.959695 0.268521 0.082956
vn 0.964840 0.205210 -0.164231
vn 0.620855 0.705725 -0.341309
vn 0.814176 0.580594 -0.005198
vn 0.954676 0.296591 0.025059
vn 0.959695 0.268521 0.082956
vn 0.804516 0.585263 0.101101
vn 0.839459 0.519555 -0.159285
vn 0.965443 0.260194 -0.014776
vn 0.954676 0.296591 0.025059
vn 0.814176 0.580594 -0.005198
vn 0.853554 0.463325 0.238277
vn 0.948879 0.108230 0.296503
vn 0.965443 0.260194 -0.014776
vn 0.839459 0.519555 -0.159285
vn 0.703929 0.111945 0.701393
vn 0.948879 0.108230 0.296503
vn 0.853554 0.463325 0.238277
vn 0.652496 0.200050 0.730910
vn 0.541993 0.080643 0.836505
vn 0.285820 0.116777 0.951142
vn 0.703929 0.111945 0.701393
vn 0.652496 0.200050 0.730910
vn 0.663051 -0.304126 0.684011
vn 0.999227 -0.039296 -0.000761
vn 0.994614 -0.022343 -0.101207
vn 0.743984 -0.340307 0.575046
vn 0.999227 -0.039296 -0.000761
vn 0.735082 0.235932 -0.635602
vn 0.707691 0.267024 -0.654119
vn 0.994614 -0.022343 -0.101207
vn -0.000206 -0.053482 0.998569
vn 0.004168 -0.215277 0.976544
vn -0.166653 -0.536123 0.827526
vn -0.606510 -0.055354 0.793147
vn 0.000000 -0.744590 -0.667522
vn 0.000000 -1.000000 0.000000
vn -0.801923 -0.597408 0.004857
vn -0.539160 -0.639381 -0.548178
vn -0.017861 -0.980402 -0.196198
vn 0.003350 0.044184 -0.999018
vn -0.000888 0.024806 -0.999692
vn -0.633939 -0.001401 -0.773382
vn 0.831309 -0.555460 0.019756
vn 0.000000 -1.000000 0.000000
vn 0.000000 -0.744265 -0.667885
vn 0.510860 -0.643665 -0.569840
vn 0.801803 -0.573618 0.167554
vn 0.002265 -0.293655 0.955909
vn 0.684145 -0.223574 0.694234
vn 0.622887 -0.087974 -0.777350
vn 0.000000 -0.150337 -0.988635
vn -0.003258 -0.044583 -0.999000
vn 0.638738 -0.076716 -0.765591
vn 0.638738 -0.076716 -0.765591
vn 0.988655 -0.112041 0.100040
vn 0.996422 0.077560 -0.033579
vn 0.622887 -0.087974 -0.777350
vn 0.684145 -0.223574 0.694234
vn 0.002265 -0.293655 0.955909
vn 0.000000 0.205955 0.978561
vn 0.636990 0.183129 0.748804
vn -0.622886 -0.087974 -0.777351
vn -0.996422 0.077561 -0.033578
vn -0.998541 -0.052243 0.013689
vn -0.610012 -0.043770 -0.791182
vn -0.695773 0.499812 0.515838
vn -0.277593 0.760257 0.587325
vn 0.000000 0.924936 0.380124
vn 0.166653 -0.536123 0.827526
vn 0.017861 -0.980402 -0.196197
vn 0.000000 -0.793773 0.608214
vn -0.361169 0.880222 -0.307841
vn -0.477161 0.873158 0.099558
vn 0.000000 0.997647 0.068554
vn 0.000000 0.959736 -0.280905
vn -0.991976 -0.115030 0.052457
vn -0.801803 -0.573617 0.167555
vn -0.987560 -0.156128 0.018698
vn -0.679107 -0.285523 -0.676233
vn -0.980458 -0.196531 -0.008819
vn -0.991976 -0.115030 0.052457
vn -0.977585 0.002698 -0.210524
vn 0.017861 -0.980402 -0.196197
vn -0.854929 -0.515265 -0.059983
vn -0.133972 -0.985828 -0.100973
vn -0.695773 0.499812 0.515838
vn -0.756433 0.404378 0.514089
vn 0.000000 0.684070 0.729416
vn -0.277593 0.760257 0.587325
vn 0.298377 -0.598554 -0.743441
vn -0.150066 -0.256842 -0.954732
vn 0.000000 -0.271830 -0.962345
vn 0.000000 -0.951801 -0.306715
vn -0.683077 0.111120 -0.721844
vn -0.608232 -0.187125 -0.771387
vn -0.679107 -0.285523 -0.676233
vn -0.977585 0.002698 -0.210524
vn 0.999956 0.008028 -0.004848
vn 0.659364 -0.092615 -0.746098
vn 0.633940 -0.001401 -0.773381
vn 0.999308 -0.031719 -0.019433
vn -0.691584 0.004010 -0.722285
vn -0.659364 -0.092615 -0.746097
vn -0.999956 0.008028 -0.004848
vn -0.999864 -0.010766 0.012476
vn -0.000000 0.654656 -0.755927
vn -0.793440 0.403191 -0.455949
vn -0.749224 0.659772 -0.057996
vn -0.000000 0.968691 -0.248268
vn -0.934212 -0.289741 0.208081
vn -0.959994 -0.048387 0.275807
vn -0.966158 0.188640 0.175935
vn -0.994036 -0.040698 0.101170
vn -0.991274 -0.027679 -0.128880
vn -0.770459 -0.492787 0.404417
vn -0.934212 -0.289741 0.208081
vn -0.994036 -0.040698 0.101170
vn -0.702451 0.294368 -0.648005
vn -0.991274 -0.027679 -0.128880
vn -0.994036 -0.040698 0.101170
vn -0.659523 0.394501 -0.639842
vn 0.002226 0.554538 -0.832156
vn -0.702451 0.294368 -0.648005
vn -0.659523 0.394501 -0.639842
vn -0.000000 0.483720 -0.875223
vn -0.903443 -0.398641 -0.157724
vn -0.721287 -0.608382 -0.331085
vn -0.995425 -0.057054 0.076644
vn -0.987820 -0.060973 0.143156
vn -0.698495 0.361796 0.617421
vn -0.714671 0.345646 0.608090
vn 0.000000 0.475590 0.879667
vn 0.000000 0.554399 0.832251
vn -0.620855 0.705725 -0.341309
vn -0.551253 0.508001 -0.661857
vn -0.590954 0.268255 -0.760797
vn -0.964840 0.205211 -0.164230
vn -0.804517 0.585262 0.101101
vn -0.620855 0.705725 -0.341309
vn -0.964840 0.205211 -0.164230
vn -0.959695 0.268522 0.082956
vn -0.814176 0.580594 -0.005198
vn -0.804517 0.585262 0.101101
vn -0.959695 0.268522 0.082956
vn -0.954676 0.296591 0.025059
vn -0.839459 0.519555 -0.159285
vn -0.814176 0.580594 -0.005198
vn -0.954676 0.296591 0.025059
vn -0.965443 0.260194 -0.014776
vn -0.853554 0.463325 0.238277
vn -0.839459 0.519555 -0.159285
vn -0.965443 0.260194 -0.014776
vn -0.948879 0.108230 0.296503
vn -0.703929 0.111945 0.701393
vn -0.652495 0.200050 0.730911
vn -0.853554 0.463325 0.238277
vn -0.948879 0.108230 0.296503
vn -0.999257 -0.038448 -0.002682
vn -0.663050 -0.304126 0.684011
vn -0.743984 -0.340308 0.575047
vn -0.994383 -0.021220 -0.103698
vn -0.735691 0.234099 -0.635575
vn -0.999257 -0.038448 -0.002682
vn -0.994383 -0.021220 -0.103698
vn -0.705052 0.265774 -0.657469
vn -0.000233 0.434012 -0.900907
vn -0.735691 0.234099 -0.635575
vn -0.705052 0.265774 -0.657469
vn 0.003330 0.400380 -0.916343
vn 0.000000 -0.744590 -0.667522
vn 0.539160 -0.639380 -0.548178
vn 0.000000 -1.000000 0.000000
vn 0.633940 -0.001401 -0.773381
vn 0.659364 -0.092615 -0.746098
vn 0.000000 -0.128879 -0.991660
vn 0.000888 0.024806 -0.999692
vn 0.013538 -0.998995 0.042734
vn 0.995531 -0.088826 0.032070
vn 0.298377 -0.598554 -0.743441
vn -0.831308 -0.555461 0.019756
vn 0.000000 -0.744264 -0.667886
vn 0.000000 -1.000000 0.000000
vn -0.629316 -0.494144 0.599819
vn -0.831308 -0.555461 0.019756
vn 0.000000 -1.000000 0.000000
vn -0.638738 -0.076716 -0.765590
vn -0.622887 -0.087974 -0.777349
vn -0.996422 0.077560 -0.033578
vn -0.988655 -0.112041 0.100040
vn -0.636991 0.183128 0.748804
vn -0.684145 -0.223574 0.694234
vn -0.988655 -0.112041 0.100040
vn -0.996422 0.077560 -0.033578
vn 0.758772 -0.182813 0.625176
vn 0.636989 0.183129 0.748805
vn 0.996422 0.077561 -0.033578
vn 0.998541 -0.052243 0.013689
vn 0.622886 -0.087974 -0.777350
vn 0.610012 -0.043770 -0.791182
vn 0.998541 -0.052243 0.013689
vn 0.996422 0.077561 -0.033578
vn -0.980458 -0.196531 -0.008819
vn -0.801803 -0.573617 0.167555
vn -0.991976 -0.115030 0.052457
vn 0.000000 0.997647 0.068554
vn -0.477161 0.873158 0.099558
vn -0.534843 0.844101 -0.037896
vn -0.000000 0.998109 -0.061470
vn 0.000000 -0.992950 -0.118530
vn -0.133972 -0.985828 -0.100973
vn 0.013538 -0.998995 0.042734
vn 0.000000 -0.999794 -0.020285
vn -0.000000 0.998109 -0.061470
vn -0.534843 0.844101 -0.037896
vn -0.671368 0.646503 -0.362352
vn -0.008323 0.818756 -0.574081
vn 0.000000 -1.000000 0.000000
vn 0.017861 -0.980402 -0.196197
vn -0.133972 -0.985828 -0.100973
vn 0.000000 -0.992950 -0.118530
vn 0.000000 -0.999794 -0.020285
vn 0.013538 -0.998995 0.042734
vn 0.298377 -0.598554 -0.743441
vn 0.000000 -0.951801 -0.306715
vn 0.000000 -0.271830 -0.962345
vn -0.150066 -0.256842 -0.954732
vn -0.266798 0.174539 -0.947816
vn 0.000000 0.079952 -0.996799
vn 0.000000 -0.445804 0.895131
vn -0.214522 -0.430177 0.876886
vn 0.166653 -0.536123 0.827526
vn 0.000000 -0.793773 0.608214
vn 0.000000 -0.954251 -0.299007
vn -0.934212 -0.289741 0.208081
vn -0.770459 -0.492787 0.404417
vn 0.000000 -0.804825 0.593512
vn 0.000000 -0.064302 0.997930
vn -0.541992 0.080643 0.836505
vn -0.285819 0.116777 0.951142
vn 0.000000 0.092939 0.995672
vn 0.000000 -0.478928 0.877854
vn -0.743984 -0.340308 0.575047
vn -0.663050 -0.304126 0.684011
vn 0.000000 -0.365761 0.930709
vn 0.000000 -0.404226 0.914659
vn -0.512230 -0.562711 0.648827
vn -0.416433 -0.878973 0.232359
vn 0.000000 -0.928913 0.370298
vn 0.000000 -0.851933 -0.523650
vn -0.117719 -0.880146 -0.459875
vn -0.010506 -0.828351 -0.560111
vn 0.000000 -0.814805 -0.579736
vn 0.999343 -0.018051 0.031438
vn 0.772582 0.311840 -0.553057
vn 0.743132 0.288555 -0.603731
vn 0.999403 -0.029367 0.018209
vn -0.016401 0.556785 -0.830495
vn -0.774571 0.310446 -0.551056
vn -0.743414 0.274838 -0.609754
vn -0.005804 0.463128 -0.886273
vn -0.774571 0.310446 -0.551056
vn -0.999383 -0.015091 0.031721
vn -0.999056 -0.039328 0.018448
vn -0.743414 0.274838 -0.609754
vn -0.999383 -0.015091 0.031721
vn -0.656515 -0.307046 0.688993
vn -0.657990 -0.306056 0.688025
vn -0.999056 -0.039328 0.018448
vn 0.000000 -0.369951 0.929051
vn -0.657990 -0.306056 0.688025
vn -0.656515 -0.307046 0.688993
vn 0.000000 -0.375537 0.926807
vn 0.656515 -0.307046 0.688993
vn 0.999343 -0.018051 0.031438
vn 0.999403 -0.029367 0.018209
vn 0.657990 -0.306056 0.688025
vn 0.793441 0.403190 -0.455949
vn 0.749225 0.659771 -0.057995
vn 0.966158 0.188640 0.175935
vn -0.659523 0.394501 -0.639842
vn -0.793440 0.403191 -0.455949
vn -0.000000 0.654656 -0.755927
vn -0.000000 0.483720 -0.875223
vn -0.193951 0.731644 -0.653513
vn -0.193951 0.731644 -0.653513
vn -0.602383 0.626316 -0.494836
vn -0.361169 0.880222 -0.307841
vn 0.000000 0.959736 -0.280905
vn 0.193951 0.731645 -0.653513
vn 0.193951 0.731645 -0.653513
vn 0.361169 0.880222 -0.307841
vn 0.620855 0.705725 -0.341309
vn 0.551254 0.508001 -0.661856
vn 0.590955 0.268254 -0.760797
vn 0.625356 0.070946 -0.777108
vn 0.210836 0.182029 -0.960424
vn 0.210836 0.182029 -0.960424
vn 0.551254 0.508001 -0.661856
vn -0.210836 0.182029 -0.960424
vn -0.210836 0.182029 -0.960424
vn -0.210836 0.182029 -0.960424
vn -0.210836 0.182029 -0.960424
vn -0.210836 0.182029 -0.960424
vn -0.618420 0.582806 0.527157
vn -0.618420 0.582806 0.527157
vn -0.620203 0.694909 0.363937
vn -0.619379 0.702044 0.351431
vn 0.618421 0.582805 0.527156
vn 0.618421 0.582805 0.527156
vn 0.619380 0.702043 0.351431
vn 0.620203 0.694908 0.363937
vn 0.679394 -0.717575 -0.153329
vn 0.679394 -0.717575 -0.153329
vn 0.682734 -0.653264 -0.327293
vn 0.682109 -0.648076 -0.338712
vn -0.679393 -0.717576 -0.153330
vn -0.679393 -0.717576 -0.153330
vn -0.682108 -0.648076 -0.338713
vn -0.682733 -0.653264 -0.327293
vn -0.608854 0.751620 0.253702
vn -0.608587 0.752460 0.251844
vn 0.608588 0.752460 0.251844
vn 0.608855 0.751619 0.253702
vn 0.672496 -0.600058 -0.433220
vn 0.672188 -0.598884 -0.435318
vn -0.672187 -0.598884 -0.435318
vn -0.672495 -0.600059 -0.433220
vn -0.600759 0.773147 0.203305
vn 0.600760 0.773146 0.203304
vn 0.663401 -0.569002 -0.485938
vn -0.663401 -0.569002 -0.485938
s off
g Reduced
usemtl initialShadingGroup
f 22/11/1 16/4/2 8/10/3 37/12/4
f 11/3/5 10/13/6 6/14/7 32/46/8
f 42/63/9 90/148/10 14/17/11 7/18/12
f 41/62/13 42/63/14 7/18/15 5/19/16
f 43/6/17 41/62/18 5/19/19 9/20/20
f 17/21/21 18/5/22 43/6/23 9/20/24
f 40/33/25 13/22/26 25/23/27 4/24/28
f 10/13/29 33/45/30 8/26/31 6/14/32
f 14/17/33 90/148/34 12/28/35 2/29/36
f 39/64/37 11/3/38 26/30/39 1/31/40
f 22/44/41 15/32/42 40/33/43 4/24/44
f 25/35/45 16/4/46 22/11/47 4/34/48
f 38/47/49 91/42/50 44/1/51 45/27/52
f 27/58/53 28/57/54 91/42/55 38/47/56
f 28/57/57 47/59/58 20/41/59 91/42/60
f 30/49/61 11/3/62 24/38/63
f 32/46/64 26/30/65 23/37/66 31/15/67
f 38/47/68 45/27/69 21/43/70 46/65/71
f 17/50/72 16/4/73 25/35/74 3/51/75
f 9/52/76 8/10/77 16/4/78 17/50/79
f 5/53/80 6/9/81 8/10/82 9/52/83
f 7/54/84 32/8/85 6/9/86 5/53/87
f 14/55/88 26/2/89 32/8/90 7/54/91
f 1/16/92 26/2/93 14/55/94 2/29/95
f 12/28/96 39/7/97 1/16/98 2/29/99
f 89/147/100 84/56/101 28/57/102 27/58/103
f 84/56/104 85/141/105 47/59/106 28/57/107
f 23/37/108 26/30/109 11/3/110 30/49/111
f 31/15/112 23/37/113 30/49/114 24/38/115
f 11/3/116 32/46/117 31/15/118 24/38/119
f 36/40/120 34/25/121 35/39/122 19/48/123
f 8/26/124 33/45/125 37/61/126
f 19/48/127 35/39/128 15/32/129 22/44/130
f 22/44/131 37/61/132 36/40/133 19/48/134
f 37/61/135 33/45/136 34/25/137 36/40/138
f 35/39/139 34/25/140 33/45/141 15/32/142
f 69/129/143 44/70/144 29/103/145
f 71/112/146 62/97/147 11/71/148
f 58/73/149 54/74/150 43/75/151 18/76/152
f 64/67/153 61/79/154 50/68/155
f 76/80/156 73/81/157 64/67/158 63/72/159
f 62/97/160 49/99/161 50/82/162
f 69/129/163 81/114/164 45/89/165 44/70/166
f 76/109/167 56/87/168 40/92/169 15/93/170
f 51/94/171 56/95/172 76/80/173 63/72/174
f 70/115/175 59/118/176 62/97/177 71/112/178
f 49/99/179 72/98/180 70/115/181 71/112/182
f 91/102/183 92/101/184 69/129/185 29/103/186
f 80/113/187 81/114/188 69/129/189 92/101/190
f 67/126/191 66/125/192 80/113/193 92/101/194
f 68/127/195 67/126/196 92/101/197 60/105/198
f 47/128/199 68/127/200 60/105/201 20/106/202
f 80/113/203 83/107/204 82/104/205 81/114/206
f 81/114/207 82/104/208 21/108/209 45/89/210
f 58/119/211 55/120/212 51/94/213 63/72/214
f 54/121/215 58/119/216 63/72/217 64/67/218
f 53/122/219 54/121/220 64/67/221 50/68/222
f 52/123/223 53/122/224 50/68/225 49/69/226
f 57/124/227 52/123/228 49/69/229 71/78/230
f 65/66/231 48/90/232 57/124/233 71/78/234
f 87/144/235 88/145/236 66/125/237 67/126/238
f 86/143/239 87/144/240 67/126/241 68/127/242
f 85/142/243 86/143/244 68/127/245 47/128/246
f 72/98/247 59/118/248 70/115/249
f 62/97/250 59/118/251 72/98/252 49/99/253
f 61/130/254 75/111/255 76/109/256
f 74/117/257 77/88/258 79/100/259
f 78/116/260 74/117/261 79/100/262
f 76/109/263 77/88/264 74/117/265 73/110/266
f 78/116/267 61/130/268 73/110/269 74/117/270
f 61/130/271 78/116/272 79/100/273 75/111/274
f 77/88/275 76/109/276 75/111/277 79/100/278
f 73/81/279 61/79/280 64/67/281
f 43/75/282 54/74/283 53/85/284 41/131/285
f 10/133/286 50/82/287 61/130/288 33/134/289
f 41/131/290 53/85/291 52/83/292 42/135/293
f 11/71/294 62/97/295 50/82/296 10/133/297
f 33/134/298 61/130/299 76/109/300 15/93/301
f 40/92/302 56/87/303 51/86/304 13/132/305
f 39/136/306 65/91/307 71/112/308 11/71/309
f 38/140/310 80/113/311 66/125/312 27/138/313
f 12/137/314 48/90/315 65/66/316 39/77/317
f 27/138/318 66/125/319 88/145/320 89/146/321
f 21/108/322 82/104/323 83/107/324 46/139/325
f 46/139/326 83/107/327 80/113/328 38/140/329
f 90/148/330 42/63/331 85/141/332 84/56/333
f 42/135/334 52/83/335 86/143/336 85/142/337
f 52/83/338 57/84/339 87/144/340 86/143/341
f 57/84/342 48/90/343 88/145/344 87/144/345
f 89/146/346 88/145/347 48/90/348 12/137/349
f 12/28/350 90/148/351 84/56/352 89/147/353
f 91/42/354 29/60/355 44/1/356
f 60/105/357 92/101/358 91/102/359 20/106/360
f 95/153/361 96/155/362 55/96/363 58/73/364 18/76/365
f 93/149/366 95/152/367 18/5/368 17/21/369 3/36/370
f 25/23/371 13/22/372 94/150/373 93/149/374 3/36/375
f 96/154/376 94/151/377 13/132/378 51/94/379 55/96/380
s 1
f 96/155/381 95/152/382 98/157/383 97/156/384
s 2
f 95/152/385 93/149/386 99/158/387 98/157/388
s 3
f 93/149/389 94/151/390 100/159/391 99/158/392
s 4
f 94/151/393 96/155/394 97/156/395 100/159/396
s 1
f 97/156/384 98/157/383 102/161/397 101/160/398
s 2
f 98/157/388 99/158/387 103/162/399 102/161/400
s 3
f 99/158/392 100/159/391 104/163/401 103/162/402
s 4
f 100/159/396 97/156/395 101/160/403 104/163/404
s 1
f 101/160/398 102/161/397 105/164/405
s 2
f 102/161/400 103/162/399 105/164/406
s 3
f 103/162/402 104/163/401 105/164/407
s 4
f 104/163/404 101/160/403 105/164/408
