# This file uses centimeters as units for non-parametric coordinates.

mtllib reduced pegasus.mtl
g default
v 1.686209 7.398341 4.400195
v 2.227191 10.190905 -5.749980
v 2.230498 7.583356 -6.180332
v 1.713408 10.281066 0.260416
v 1.711426 6.759828 -0.578772
v 2.078859 10.698936 2.670731
v 1.907025 6.931973 -3.564340
v 2.227157 10.653728 -4.079853
v 1.580428 10.182324 4.789261
v 2.524454 9.731301 -4.075942
v 0.004042 6.310421 -0.562258
v 1.557596 11.793138 4.006096
v 2.078859 10.940216 3.850006
v 1.641232 6.276919 4.107742
v 2.231239 6.302429 -5.776790
v 2.461256 9.748287 -5.137677
v 2.227157 10.687142 -4.885588
v 0.004043 11.659526 -4.767144
v 1.750291 0.395455 -6.727113
v 1.743183 -0.222584 -5.716045
v 0.004043 6.277221 4.106735
v 0.561671 0.369075 1.692930
v 2.227765 9.340286 -5.957580
v 2.069329 9.542932 -0.204039
v 0.004103 9.906142 -6.506648
v 0.004043 13.582684 6.054089
v 1.480335 14.199474 4.876974
v 0.564053 -0.299289 2.690244
v 1.519776 -0.299293 2.690258
v 1.517277 0.367693 1.693137
v 1.753990 6.299549 2.792555
v 0.768934 0.397265 -6.732905
v 0.761828 -0.220622 -5.721843
v 2.398293 6.962418 -4.682721
v 0.004043 13.763149 6.319917
v 0.004043 15.723527 7.880240
v 0.004043 12.590535 8.375198
v 0.004043 10.737676 -6.281153
v -1.678124 7.398341 4.400195
v -2.219108 10.190905 -5.749980
v -2.222414 7.583359 -6.180345
v -1.703343 6.759829 -0.578776
v -2.219074 10.653728 -4.079853
v -2.070776 10.698936 2.670731
v -2.061245 9.542932 -0.204039
v -2.219682 9.340286 -5.957582
v 0.004043 7.398123 4.889807
v 0.004043 12.134622 2.116867
v 0.004042 11.302066 0.260416
v -0.360819 10.611926 -6.281154
v 0.005407 7.591857 -6.639430
v -1.549512 11.793138 4.006096
v -2.070776 10.940216 3.850006
v -2.223155 6.302436 -5.776814
v -2.219074 10.687142 -4.885588
v -0.553589 0.369076 1.692928
v -1.898943 6.931977 -3.564355
v 0.004043 15.793319 4.323908
v 0.004043 6.299745 2.789614
v -1.745907 6.299549 2.792555
v 0.004043 13.594253 9.095407
v -2.453174 9.748287 -5.137678
v -2.516369 9.731301 -4.075943
v -1.572342 10.182324 4.789261
v 0.004043 11.256797 5.249167
v 0.004043 11.793479 -12.199147
v -0.643410 11.831689 -10.573574
v 0.004043 11.106669 -13.092611
v -1.472250 14.199474 4.876974
v 0.004043 14.596445 3.600710
v 0.004043 16.914173 5.831219
v -1.511691 -0.299293 2.690258
v -0.555972 -0.299289 2.690244
v -1.633146 6.276919 4.107742
v -1.509192 0.367693 1.693135
v -2.390211 6.962423 -4.682737
v -0.580301 5.659773 -5.038402
v 0.005460 6.304445 -5.786383
v 0.003633 6.934515 -3.571600
v -0.952094 13.795433 6.275686
v 0.004043 13.080003 9.033389
v -0.707191 12.998504 8.128629
v 1.501998 14.531077 5.089050
v 0.004043 15.539264 3.492410
v -1.493915 14.531077 5.089050
v 0.004043 13.673316 6.187592
v 1.498617 13.630058 4.670896
v 0.004043 14.291248 2.924568
v -1.490533 13.630058 4.670896
v 0.004043 13.032305 5.863619
v 1.517731 13.034757 4.455450
v 0.004043 13.404870 3.027547
v -1.509646 13.034757 4.455450
v 0.004043 12.456905 5.664490
v 1.536864 12.438852 4.239786
v 0.004043 12.935506 2.063910
v -1.528779 12.438852 4.239786
v 0.004043 11.880923 5.465159
v 0.004043 16.669657 4.249140
v 4.474695 13.740135 0.025409
v -1.779953 12.789539 -1.723587
v 2.446822 12.099412 -1.723586
v 1.785568 12.783729 -1.723587
v 4.834374 14.704877 -1.582341
v 2.949865 12.779613 -4.456714
v 2.551558 13.191813 -4.456714
v 4.817550 14.816776 -4.061630
v -1.705325 10.281066 0.260416
v -1.412250 11.000502 1.465574
v 1.420332 11.000502 1.465574
v 2.730702 11.438618 1.557324
v 2.420959 11.714655 0.859035
v 1.872469 11.999285 -0.729060
v 1.896134 10.490002 1.465574
v 2.533723 11.314968 -0.729060
v 2.749766 11.372116 0.859035
v 1.237607 10.791566 0.260416
v 2.203096 11.657126 -0.729060
v -3.989570 12.915578 0.794775
v -3.984931 13.075617 -0.226029
v -3.686536 13.384421 -0.226029
v -3.814309 13.067216 0.468175
v 3.992812 12.912222 0.794775
v 3.817551 13.063861 0.468174
v 3.689777 13.381065 -0.226029
v 3.988173 13.072263 -0.226029
v 3.994166 12.881085 0.468174
v 4.104241 14.291211 -5.873637
v 4.136262 14.234556 -6.089019
v 4.192063 14.200325 -5.873637
v -4.556129 14.600805 -5.593408
v -4.428384 14.534399 -5.796824
v -4.327870 13.371170 0.505703
v -4.471793 13.743139 0.025411
v -4.185008 13.414297 0.367281
v -4.225795 13.716759 -0.089569
v -4.145769 13.855827 -1.875776
v -3.823629 14.189201 -1.875776
v -4.831615 14.707733 -1.582339
v -4.506609 14.604052 -1.699335
v 3.826709 14.186013 -1.875777
v 4.148849 13.852638 -1.875777
v -4.214777 14.116898 -4.281454
v -2.946483 12.783115 -4.456714
v -2.548176 13.195313 -4.456714
v -4.006801 14.332127 -4.281454
v -4.815770 14.818621 -4.061628
v -4.553208 14.700726 -4.149657
v 3.926109 14.321498 -3.069612
v 4.008788 14.330069 -4.281455
v 2.349699 13.087980 -3.117107
v 2.830929 12.589966 -3.117107
v 4.216765 14.114838 -4.281455
v 4.197699 14.040436 -3.069612
v 4.870586 14.849178 -2.808559
v -4.190987 14.201443 -5.873636
v -3.433603 13.430056 -5.916908
v -3.280019 13.588995 -5.916908
v -4.103164 14.292328 -5.873636
v 2.426623 12.549973 -4.978268
v 3.281693 13.587262 -5.916908
v 3.425268 13.566518 -6.116319
v 3.435277 13.428322 -5.916908
v 4.557180 14.599714 -5.593409
v -2.441207 12.105224 -1.723587
vt 0.750000 0.188468
vt 0.812500 0.188468
vt 0.530262 0.937500
vt 0.843750 0.188468
vt 0.512731 0.468750
vt 0.512731 0.375000
vt 0.512731 0.000000
vt 0.656250 0.000000
vt 0.687500 0.000000
vt 0.750000 0.000000
vt 0.812500 0.000000
vt 0.843750 0.000000
vt 0.828125 0.000000
vt 0.512731 0.875000
vt 0.625000 0.875000
vt 0.625000 0.937500
vt 0.625000 0.250000
vt 0.625000 0.000000
vt 0.562500 0.281250
vt 0.625000 0.281250
vt 0.625000 0.312500
vt 0.625000 0.375000
vt 0.625000 0.437500
vt 0.625000 0.468750
vt 0.625000 0.561532
vt 0.625000 0.750000
vt 0.562500 0.812500
vt 0.625000 0.812500
vt 0.513776 0.250000
vt 0.518151 0.250000
vt 0.625000 0.968750
vt 0.625000 1.000000
vt 0.519384 0.781250
vt 0.512731 0.750000
vt 0.625000 0.781250
vt 0.875000 0.000000
vt 0.875000 0.188468
vt 0.625000 0.500000
vt 0.625000 0.968750
vt 0.562500 0.937500
vt 0.625000 0.937500
vt 0.509834 0.312500
vt 0.509413 0.312500
vt 0.562500 0.281250
vt 0.511382 0.312500
vt 0.522924 0.250000
vt 0.562500 0.781250
vt 0.513041 0.250000
vt 0.625000 0.781250
vt 0.562500 0.968750
vt 0.524769 0.500000
vt 0.843750 0.250000
vt 0.875000 0.250000
vt 0.812500 0.250000
vt 0.750000 0.250000
vt 0.687500 0.250000
vt 0.656250 0.250000
vt 0.525538 0.561532
vt 0.524769 0.561532
vt 0.562500 0.281250
vt 0.562500 0.281250
vt 0.513428 0.250000
vt 0.513211 0.312500
vt 0.512945 0.312500
vt 0.509792 0.312500
vt 0.530262 0.968750
vt 0.625000 0.796875
vt 0.625000 0.812500
vt 0.517147 0.250000
vt 0.519384 0.812500
vt 0.514069 0.312500
vt 0.512731 1.000000
vt 0.513233 0.250000
vt 0.525538 0.500000
vt 0.514546 0.250000
vt 0.525390 0.250000
vt 0.518151 0.250000
vt 0.812500 0.188468
vt 0.750000 0.188468
vt 0.687500 0.250000
vt 0.656250 0.250000
vt 0.530262 0.968750
vt 0.843750 0.188468
vt 0.512731 0.468750
vt 0.512731 0.000000
vt 0.687500 0.000000
vt 0.656250 0.000000
vt 0.750000 0.000000
vt 0.812500 0.000000
vt 0.843750 0.000000
vt 0.828125 0.000000
vt 0.625000 0.875000
vt 0.625000 0.000000
vt 0.625000 0.250000
vt 0.514069 0.312500
vt 0.625000 0.281250
vt 0.562500 0.281250
vt 0.512731 0.375000
vt 0.625000 0.437500
vt 0.625000 0.468750
vt 0.625000 0.561532
vt 0.512731 0.750000
vt 0.625000 0.750000
vt 0.519384 0.781250
vt 0.513776 0.250000
vt 0.512731 1.000000
vt 0.625000 1.000000
vt 0.625000 0.781250
vt 0.875000 0.188468
vt 0.875000 0.000000
vt 0.562500 0.500000
vt 0.625000 0.500000
vt 0.562500 0.968750
vt 0.530262 0.937500
vt 0.625000 0.937500
vt 0.625000 0.937500
vt 0.509413 0.312500
vt 0.517147 0.250000
vt 0.562500 0.281250
vt 0.513233 0.250000
vt 0.509834 0.312500
vt 0.511382 0.312500
vt 0.562500 0.250000
vt 0.522924 0.250000
vt 0.562500 0.797348
vt 0.625000 0.968750
vt 0.562500 0.250000
vt 0.625000 0.968750
vt 0.519384 0.812500
vt 0.625000 0.796875
vt 0.562500 0.937500
vt 0.524769 0.500000
vt 0.843750 0.250000
vt 0.875000 0.250000
vt 0.812500 0.250000
vt 0.750000 0.250000
vt 0.562500 0.500000
vt 0.524769 0.561532
vt 0.525538 0.561532
vt 0.562500 0.281250
vt 0.514546 0.250000
vt 0.562500 0.281250
vt 0.512945 0.312500
vt 0.513211 0.312500
vt 0.509792 0.312500
vt 0.625000 0.812500
vt 0.512731 0.875000
vt 0.525538 0.500000
vt 0.513428 0.250000
vt 0.525390 0.250000
vt 0.513041 0.250000
vt 0.562500 0.281250
vt 0.513489 0.312500
vt 0.513489 0.312500
vt 0.562500 0.281250
vt 0.515714 0.250000
vt 0.515714 0.250000
vt 0.562500 0.281250
vt 0.513768 0.312500
vt 0.513768 0.312500
vt 0.562500 0.281250
vt 0.516884 0.250000
vt 0.516884 0.250000
vt 0.625000 0.375000
vt 0.625000 0.375000
vt 0.603950 0.354601
vt 0.565486 0.375000
vt 0.625000 0.375000
vt 0.625000 0.375000
vt 0.562500 0.375000
vt 0.625000 0.375000
vt 0.601563 0.359375
vt 0.625000 0.375000
vt 0.562500 0.375000
vt 0.625000 0.375000
vt 0.601563 0.359375
vt 0.625000 0.375000
vt 0.562500 0.375000
vt 0.625000 0.375000
vt 0.625000 0.312500
vt 0.593750 0.343750
vt 0.593750 0.343750
vt 0.617188 0.328125
vt 0.593750 0.343750
vt 0.562500 0.375000
vt 0.625000 0.343750
vt 0.718750 0.250000
vt 0.625000 0.375000
vt 0.625000 0.343750
vt 0.593750 0.375000
vt 0.625000 0.375000
vt 0.593750 0.375000
vt 0.615668 0.331163
vt 0.625000 0.375000
vt 0.562500 0.375000
vt 0.594618 0.344618
vt 0.615668 0.331163
vt 0.594618 0.344618
vt 0.562500 0.375000
vt 0.625000 0.375000
vt 0.623264 0.344618
vt 0.593750 0.375000
vt 0.562500 0.375000
vt 0.594618 0.373264
vt 0.625000 0.375000
vt 0.604167 0.354167
vt 0.583333 0.364583
vt 0.611111 0.340278
vt 0.604167 0.354167
vt 0.597222 0.347222
vt 0.583333 0.364583
vt 0.625000 0.375000
vt 0.562500 0.375000
vt 0.562500 0.375000
vt 0.570313 0.375000
vt 0.562500 0.375000
vt 0.562500 0.375000
vt 0.604167 0.354167
vt 0.604167 0.354167
vt 0.604167 0.354167
vt 0.604167 0.354167
vt 0.625000 0.375000
vt 0.622014 0.375000
vt 0.565486 0.375000
vt 0.562500 0.375000
vt 0.570313 0.375000
vt 0.625000 0.375000
vt 0.562500 0.375000
vt 0.562500 0.375000
vt 0.604167 0.354167
vt 0.604167 0.354167
vt 0.625000 0.375000
vt 0.562500 0.375000
vt 0.604167 0.354167
vt 0.604167 0.354167
vt 0.601563 0.359375
vt 0.562500 0.375000
vt 0.625000 0.375000
vt 0.625000 0.375000
vt 0.617188 0.375000
vt 0.570313 0.375000
vt 0.562500 0.375000
vt 0.562500 0.375000
vt 0.625000 0.375000
vt 0.562500 0.375000
vt 0.562500 0.375000
vt 0.625000 0.375000
vt 0.625000 0.375000
vt 0.625000 0.375000
vt 0.625000 0.375000
vt 0.604167 0.354167
vt 0.625000 0.375000
vt 0.562500 0.375000
vt 0.604167 0.354167
vt 0.599923 0.362654
vt 0.622014 0.375000
vt 0.625000 0.375000
vt 0.625000 0.375000
vt 0.625000 0.375000
vt 0.625000 0.375000
vt 0.625000 0.375000
vt 0.625000 0.375000
vt 0.625000 0.375000
vt 0.625000 0.375000
vt 0.625000 0.375000
vt 0.604167 0.354167
vt 0.562500 0.375000
vt 0.562500 0.375000
vt 0.562500 0.375000
vt 0.562500 0.375000
vt 0.625000 0.375000
vt 0.562500 0.375000
vt 0.562500 0.375000
vt 0.562500 0.375000
vt 0.625000 0.375000
vt 0.562500 0.375000
vt 0.562500 0.375000
vt 0.625000 0.375000
vn 0.954037 0.256090 0.155661
vn 0.743086 -0.199252 0.638844
vn 0.932654 -0.224860 -0.282125
vn 0.991939 0.122960 -0.030615
vn 0.998130 -0.038435 0.047526
vn 0.846703 -0.531978 -0.009696
vn 0.997552 -0.004313 0.069793
vn 0.702624 -0.466926 0.536936
vn 0.697781 -0.043015 -0.715018
vn 0.991387 0.039260 -0.124942
vn 0.988542 -0.091930 0.119723
vn 0.000001 -0.532099 -0.846682
vn 0.000005 -0.995220 -0.097663
vn 0.511345 -0.005450 0.859358
vn 0.000000 -0.037680 0.999290
vn -0.000000 -0.192415 0.981314
vn 0.557443 -0.159019 0.814844
vn 0.000000 0.818541 -0.574448
vn 0.890590 0.441157 0.110590
vn 0.167240 0.985916 0.000016
vn 0.163950 0.984368 0.064338
vn 0.471800 0.871427 -0.134236
vn 0.009746 0.996184 -0.086728
vn 0.580801 0.810271 0.078297
vn 0.000052 -0.125098 -0.992144
vn -0.007631 -0.140718 -0.990020
vn 0.520362 0.106090 -0.847330
vn 0.476720 -0.115919 -0.871379
vn -0.344181 -0.815694 0.464956
vn 0.000000 -0.311696 0.950182
vn -0.653449 -0.228204 -0.721753
vn 0.734897 0.617161 -0.281139
vn 0.455314 0.589019 -0.667642
vn -0.549642 -0.318558 0.772279
vn -0.717039 -0.014329 -0.696886
vn 0.554258 -0.287610 0.781075
vn 0.750461 0.017002 -0.660696
vn 0.987540 -0.032399 0.153998
vn 0.970811 0.198699 0.134331
vn 0.555907 0.831085 0.016310
vn 0.097145 0.903913 0.416538
vn 0.255924 0.361184 0.896688
vn 0.791980 0.443568 0.419541
vn 0.087837 0.401122 -0.911804
vn -0.859037 0.488490 -0.153076
vn 0.455385 -0.382076 0.804141
vn 0.610035 -0.002847 -0.792370
vn -0.606044 -0.363383 0.707576
vn -0.767213 -0.050905 -0.639370
vn 0.621191 0.467422 0.628998
vn 0.951715 -0.295582 -0.082887
vn 0.909435 0.413321 -0.045758
vn 0.961262 -0.252253 -0.111098
vn 0.694028 -0.696733 -0.181352
vn 0.986796 0.160017 -0.025043
vn -0.000000 -0.320958 0.947093
vn 0.998836 0.046924 -0.011176
vn 0.978116 0.062686 -0.198393
vn -0.000000 -0.445273 0.895395
vn -0.000000 0.367905 -0.929864
vn 0.000000 0.437773 -0.899085
vn -0.364366 -0.419776 0.831279
vn -0.954037 0.256090 0.155662
vn -0.999373 0.035386 -0.001358
vn -0.932654 -0.224860 -0.282124
vn -0.743086 -0.199252 0.638844
vn -0.998130 -0.038435 0.047526
vn -0.846724 -0.531944 -0.009687
vn -0.997552 -0.004314 0.069793
vn -0.790020 -0.593034 0.155496
vn -0.553815 -0.591650 -0.585865
vn -0.873752 -0.457607 0.164783
vn -0.991387 0.039260 -0.124942
vn -0.511345 -0.005450 0.859358
vn -0.557442 -0.159019 0.814844
vn -0.890589 0.441158 0.110590
vn -0.580657 0.810070 0.081392
vn -0.940914 -0.181579 -0.285850
vn -0.475331 0.871083 -0.123590
vn -0.476399 -0.116072 -0.871534
vn -0.526094 0.093859 -0.845231
vn -0.818182 0.362117 -0.446597
vn -0.472983 0.585117 -0.658731
vn 0.549643 -0.318558 0.772278
vn 0.717039 -0.014329 -0.696886
vn -0.750462 0.017002 -0.660695
vn -0.554259 -0.287609 0.781075
vn -0.982690 0.154251 0.102602
vn -0.973940 0.215400 -0.071023
vn -0.978350 -0.134918 0.156935
vn -0.999655 -0.022138 0.014150
vn -0.998836 0.046924 -0.011176
vn -0.978116 0.062686 -0.198393
vn -0.071277 -0.967419 0.242942
vn 0.994909 0.094695 -0.034485
vn 0.000000 0.494801 -0.869007
vn -0.994909 0.094694 -0.034486
vn 0.000000 -0.321032 0.947069
vn 0.994248 0.107004 -0.004693
vn 0.000000 0.420529 -0.907279
vn -0.994247 0.107004 -0.004693
vn 0.000000 -0.321108 0.947043
vn 0.478855 0.838365 -0.260467
vn 0.055923 0.959071 0.277587
vn -0.754258 0.641155 0.141474
vn -0.405787 0.820614 0.402405
vn 0.465048 0.381135 0.799041
vn 0.757478 -0.651838 -0.036522
vn 0.561799 -0.739032 -0.371772
vn -0.345796 -0.477797 -0.807549
vn -0.741348 -0.644817 -0.186050
vn -0.845630 -0.463069 0.265475
vn 0.403589 0.750927 0.522709
vn -0.555179 0.732636 0.393726
vn -0.560366 0.712200 0.422802
vn 0.313992 0.287984 0.904696
vn 0.787221 -0.612558 -0.071110
vn 0.738122 -0.668883 -0.088157
vn 0.660675 -0.739445 -0.129347
vn -0.307635 -0.226320 -0.924197
vn 0.103976 0.093123 -0.990211
vn -0.898873 -0.433571 -0.063598
vn -0.873119 -0.485857 0.040084
vn 0.480167 0.731258 0.484460
vn 0.819464 0.552990 -0.150601
vn 0.801829 0.588828 -0.101745
vn -0.343075 -0.823467 -0.451888
vn -0.449191 -0.878979 -0.160075
vn -0.742044 -0.657928 -0.128459
vn -0.736548 -0.674810 -0.046149
vn -0.907027 -0.419955 -0.030651
vn -0.884955 -0.463397 -0.046026
vn 0.489902 0.856228 0.163916
vn 0.500136 0.865947 -0.000486
vn -0.828795 0.543385 -0.133536
vn -0.793702 0.584360 0.168998
vn -0.555532 0.805294 0.207088
vn -0.565884 0.824462 -0.006109
vn 0.704725 0.709412 -0.009868
vn 0.618853 0.717357 0.320031
vn 0.754812 -0.635611 -0.162043
vn 0.741433 -0.669583 -0.044009
vn -0.555395 -0.801185 -0.222799
vn -0.731812 -0.670206 -0.123589
vn -0.876012 -0.472296 -0.097673
vn 0.524385 0.844952 -0.105242
vn 0.542686 -0.837026 -0.069860
vn -0.567783 -0.553960 -0.608893
vn -0.717216 0.671838 -0.185026
vn -0.796691 0.596087 -0.099820
vn -0.582954 0.811214 -0.045792
vn -0.588657 0.801810 -0.102875
vn 0.697200 0.666296 -0.264504
vn 0.709462 0.687659 -0.154237
vn 0.738524 -0.673061 -0.039637
vn 0.748755 0.614950 -0.247392
vn 0.596369 0.789370 -0.145734
vn 0.458293 0.805899 0.374825
vn 0.762261 -0.605703 -0.228216
vn 0.495544 0.785142 0.371469
vn 0.686913 0.541548 0.484640
vn 0.548130 0.828373 0.115545
vn 0.416918 -0.820115 -0.391908
vn 0.584939 0.810517 -0.030157
vn 0.448766 -0.880231 -0.154278
s 1
g reduced_bebapus
usemtl initialShadingGroup
f 13/57/1 14/8/2 31/9/3 6/56/4
f 24/1/5 6/56/4 31/9/3 5/10/6
f 10/2/7 24/1/5 5/10/6 7/11/8
f 15/12/9 16/4/10 10/2/7 34/13/11
f 59/3/12 11/14/13 5/15/6 31/41/3
f 9/17/14 65/30/15 47/7/16 1/18/17
f 48/71/18 12/19/19 13/20/1 6/21/4
f 49/6/20 48/71/18 6/21/4 110/182/21
f 17/24/22 18/5/23 49/6/20 8/23/24
f 51/34/25 25/58/26 23/25/27 3/26/28
f 11/14/13 79/70/29 7/28/8 5/15/6
f 13/20/1 12/19/19 65/30/15 9/17/14
f 1/18/17 14/8/2 13/57/1 9/17/14
f 47/72/16 21/66/30 14/31/2 1/32/17
f 15/35/9 78/33/31 51/34/25 3/26/28
f 23/37/27 16/4/10 15/12/9 3/36/28
f 38/74/32 18/5/23 17/24/22 2/38/33
f 28/50/34 21/66/30 59/3/12 22/40/35
f 31/41/3 14/31/2 29/39/36 30/16/37
f 35/48/38 99/43/39 71/65/40 36/29/41
f 86/73/42 83/44/43 99/43/39 35/48/38
f 83/44/43 84/45/44 58/42/45 99/43/39
f 15/35/9 34/67/11 20/68/46 19/49/47
f 33/27/48 79/70/29 78/33/31 32/47/49
f 35/48/38 36/29/41 61/46/50 37/76/51
f 23/25/27 25/58/26 38/74/32 2/38/33
f 17/52/22 16/4/10 23/37/27 2/53/33
f 8/54/24 10/2/7 16/4/10 17/52/22
f 4/55/52 24/1/5 10/2/7 8/54/24
f 6/56/4 24/1/5 4/55/52 114/187/53
f 38/74/32 25/58/26 68/59/54 66/51/55
f 90/75/56 87/60/57 27/61/58 26/62/59
f 87/60/57 88/63/60 70/64/61 27/61/58
f 29/39/36 14/31/2 21/66/30 28/50/34
f 30/16/37 29/39/36 28/50/34 22/40/35
f 59/3/12 31/41/3 30/16/37 22/40/35
f 20/68/46 34/67/11 7/28/8
f 32/47/49 78/33/31 15/35/9 19/49/47
f 20/68/46 33/27/48 32/47/49 19/49/47
f 7/28/8 79/70/29 33/27/48 20/68/46
f 34/13/11 10/2/7 7/11/8
f 81/69/62 37/76/51 61/46/50
f 53/81/63 44/80/64 60/86/65 74/87/66
f 45/79/67 42/88/68 60/86/65 44/80/64
f 63/78/69 57/89/70 42/88/68 45/79/67
f 54/90/71 76/91/72 63/78/69 62/83/73
f 59/114/12 60/116/65 42/92/68 11/147/13
f 64/94/74 39/93/75 47/85/16 65/77/15
f 48/95/18 44/180/64 53/96/63 52/97/76
f 49/98/20 43/99/77 108/179/78
f 55/100/79 43/99/77 49/98/20 18/84/23
f 51/102/25 41/103/80 46/101/81 25/139/26
f 11/147/13 42/92/68 57/146/70 79/129/29
f 53/96/63 64/94/74 65/77/15 52/97/76
f 39/93/75 64/94/74 53/81/63 74/87/66
f 47/106/16 39/107/75 74/126/66 21/82/30
f 54/108/71 41/103/80 51/102/25 78/104/31
f 46/109/81 41/110/80 54/90/71 62/83/73
f 50/111/82 40/112/83 55/100/79 18/84/23
f 73/113/84 56/131/85 59/114/12 21/82/30
f 60/116/65 75/115/86 72/128/87 74/126/66
f 99/117/39 58/121/45 71/145/40
f 80/127/88 36/105/41 71/145/40 58/121/45
f 85/119/89 86/120/42 80/127/88 58/121/45
f 84/122/44 85/119/89 58/121/45
f 80/127/88 82/123/90 61/124/50 36/105/41
f 46/101/81 40/112/83 50/111/82 25/139/26
f 55/133/79 40/134/83 46/109/81 62/83/73
f 43/135/77 55/133/79 62/83/73 63/78/69
f 108/136/78 43/135/77 63/78/69 45/79/67
f 44/80/64 108/136/78 45/79/67
f 50/111/82 67/137/91 68/138/54 25/139/26
f 67/137/91 66/132/55 68/138/54
f 89/140/92 90/141/56 26/149/59 69/142/93
f 88/144/60 89/140/92 69/142/93 70/143/61
f 72/128/87 73/113/84 21/82/30 74/126/66
f 75/115/86 56/131/85 73/113/84 72/128/87
f 59/114/12 56/131/85 75/115/86 60/116/65
f 79/129/29 77/125/94 78/104/31
f 76/130/72 54/108/71 78/104/31 77/125/94
f 79/129/29 57/146/70 76/130/72 77/125/94
f 76/91/72 57/89/70 63/78/69
f 82/123/90 81/118/62 61/124/50
f 38/148/32 50/111/82 18/84/23
f 35/151/38 80/127/88 86/120/42
f 66/132/55 67/137/91 50/111/82 38/148/32
f 81/118/62 82/123/90 37/150/51
f 37/150/51 82/123/90 80/127/88 35/151/38
f 26/62/59 27/61/58 83/44/43 86/73/42
f 27/61/58 70/64/61 84/45/44 83/44/43
f 69/142/93 85/119/89 84/122/44 70/143/61
f 26/149/59 86/120/42 85/119/89 69/142/93
f 91/152/95 92/153/96 88/63/60 87/60/57
f 92/154/96 93/155/97 89/140/92 88/144/60
f 93/155/97 94/156/98 90/141/56 89/140/92
f 94/157/98 91/152/95 87/60/57 90/75/56
f 95/158/99 96/159/100 92/153/96 91/152/95
f 96/160/100 97/161/101 93/155/97 92/154/96
f 97/161/101 98/162/102 94/156/98 93/155/97
f 98/163/102 95/158/99 91/152/95 94/157/98
f 12/19/19 48/71/18 96/159/100 95/158/99
f 52/97/76 97/161/101 96/160/100 48/95/18
f 65/77/15 98/162/102 97/161/101 52/97/76
f 65/30/15 12/19/19 95/158/99 98/163/102
f 8/23/24 49/6/20 117/190/103 4/22/52
f 49/98/20 109/181/104 44/180/64 48/95/18
f 113/185/105 49/6/20 110/182/21 112/184/106
f 111/183/107 6/21/4 114/186/53 116/189/108
f 115/188/109 4/22/52 117/190/103 118/192/110
f 120/194/111 108/179/78 44/180/64 119/193/112
f 119/193/112 44/180/64 109/181/104 122/196/113
f 125/199/114 113/185/105 112/184/106 124/198/115
f 123/197/116 111/183/107 116/189/108 127/201/117
f 130/205/118 163/177/119 162/202/120 129/204/121
f 134/209/122 120/194/111 119/193/112 133/208/123
f 133/208/123 119/193/112 122/196/113 135/210/124
f 145/224/125 101/167/126 165/256/127 144/223/128
f 144/223/128 165/256/127 137/212/129 143/222/130
f 143/227/130 137/169/129 139/215/131 147/226/132
f 147/226/132 139/215/131 140/217/133 148/229/134
f 151/232/135 103/168/136 141/219/137 149/230/138
f 155/236/139 104/172/140 142/275/141 154/238/142
f 157/240/143 144/223/128 143/222/130 156/239/144
f 156/244/144 143/227/130 147/226/132 131/243/145
f 131/243/145 147/226/132 148/229/134 132/246/146
f 163/250/119 105/175/147 160/247/148 162/249/120
f 161/252/149 106/173/150 150/231/151 128/251/152
f 164/255/153 107/176/154 153/278/155 130/205/118
f 115/165/109 118/191/110 113/260/105
f 105/175/147 106/264/150 160/247/148
f 110/182/21 6/21/4 111/183/107 112/184/106
f 114/186/53 4/22/52 115/188/109 116/189/108
f 117/190/103 49/6/20 113/185/105 118/192/110
f 158/241/156 157/240/143 156/239/144 159/242/157
f 109/181/104 49/98/20 121/195/158 122/196/113
f 112/184/106 111/183/107 123/197/116 124/198/115
f 116/189/108 115/265/109 126/200/159 127/201/117
f 162/202/120 161/178/149 128/203/152 129/204/121
f 159/242/157 156/239/144 131/206/145 132/207/146
f 122/196/113 121/195/158 136/211/160 135/210/124
f 136/211/160 134/266/122 133/208/123 135/210/124
f 123/197/116 100/166/161 125/199/114 124/198/115
f 126/271/159 100/166/161 123/197/116 127/201/117
f 128/203/152 164/255/153 130/205/118 129/204/121
f 165/256/127 101/167/126 49/98/20 108/179/78
f 137/212/129 165/256/127 108/179/78 120/194/111
f 49/98/20 101/167/126 138/213/162 121/195/158
f 139/215/131 137/169/129 120/164/111 134/214/122
f 121/267/158 138/268/162 140/217/133 136/216/160
f 140/217/133 139/215/131 134/214/122 136/216/160
f 113/260/105 103/261/136 102/171/163 115/165/109
f 141/219/137 103/168/136 113/259/105 125/218/114
f 115/269/109 102/270/163 142/221/141 126/220/159
f 100/166/161 104/172/140 141/170/137 125/199/114
f 142/275/141 104/172/140 100/166/161 126/271/159
f 138/213/162 101/167/126 145/224/125 146/225/164
f 140/217/133 138/272/162 146/228/164 148/229/134
f 102/171/163 103/262/136 151/257/135 152/258/165
f 151/257/135 106/263/150 105/175/147 152/258/165
f 150/231/151 106/173/150 151/232/135 149/230/138
f 142/221/141 102/273/163 152/233/165 154/235/142
f 152/233/165 105/274/147 153/234/155 154/235/142
f 141/170/137 104/172/140 155/236/139 149/237/138
f 155/236/139 107/176/154 150/174/151 149/237/138
f 153/278/155 107/176/154 155/236/139 154/238/142
f 145/224/125 144/223/128 157/240/143 158/241/156
f 146/225/164 145/224/125 158/241/156 159/242/157
f 148/229/134 146/276/164 159/245/157 132/246/146
f 160/247/148 106/264/150 161/248/149 162/249/120
f 153/234/155 105/277/147 163/253/119 130/254/118
f 150/174/151 107/176/154 164/255/153 128/203/152
